<?xml version="1.0" encoding="UTF-8" standalone="no"?>
<svg
   version="1.1"
   viewBox="0 0 1024 1024"
   id="svg872"
   sodipodi:docname="copydog.svg"
   inkscape:version="1.2.2 (732a01da63, 2022-12-09, custom)"
   xmlns:inkscape="http://www.inkscape.org/namespaces/inkscape"
   xmlns:sodipodi="http://sodipodi.sourceforge.net/DTD/sodipodi-0.dtd"
   xmlns="http://www.w3.org/2000/svg"
   xmlns:svg="http://www.w3.org/2000/svg">
  <defs
     id="defs876" />
  <sodipodi:namedview
     id="namedview874"
     pagecolor="#ffffff"
     bordercolor="#666666"
     borderopacity="1.0"
     inkscape:showpageshadow="2"
     inkscape:pageopacity="0.0"
     inkscape:pagecheckerboard="0"
     inkscape:deskcolor="#d1d1d1"
     showgrid="false"
     inkscape:zoom="0.80816283"
     inkscape:cx="497.42451"
     inkscape:cy="524.02806"
     inkscape:window-width="1904"
     inkscape:window-height="1160"
     inkscape:window-x="8"
     inkscape:window-y="32"
     inkscape:window-maximized="0"
     inkscape:current-layer="svg872" />
  <g
     id="g3032"
     transform="matrix(1.0617544,0,0,1.0617544,-28.527153,-112.87814)">
    <path
       fill="#524f8c"
       d="m 716.79,253.75 q -1.44,1.5 -3.48,1.99 -1.66,0.4 -0.06,0.8 -9.86,2.91 -18.96,7.71 -2.73,0.17 -3.98,-0.81 -26.42,-20.83 -51.25,-32.75 -31.53,-15.14 -71.56,-24.44 -35.17,-8.17 -76.25,-6.29 l 0.23,-0.2 a 0.19,0.18 34.6 0 0 -0.06,-0.31 q -1.47,-0.57 -3.73,-0.39 -23.01,1.84 -42.94,6.69 -24.69,6.01 -52.43,17.03 -9.73,3.87 -18.22,8.21 -22.14,11.32 -42.52,25.64 -0.32,0.22 -0.39,0.48 -0.1,0.35 0.06,0.68 l -9.75,7.92 q -5.46,-2.35 -10.56,-5.4 -2.31,-1.37 -11.44,-5.02 16.63,-14.74 35.71,-25.97 6.77,-3.98 17.47,-9.75 39.09,-21.05 82.28,-32.07 11.53,-2.94 23.25,-4.99 26.93,-4.73 54.29,-4.21 47.03,0.89 91.6,15.78 43.25,14.46 81.84,38.73 9.73,6.12 19.42,12.31 6.06,3.86 11.43,8.63 z"
       id="path634" />
    <path
       fill="#2c2d65"
       d="m 491.25,199.96 q -32.54,2.13 -67.19,12.6 -51.3,15.52 -92.81,45.23 -0.16,-0.33 -0.06,-0.68 0.07,-0.26 0.39,-0.48 20.38,-14.32 42.52,-25.64 8.49,-4.34 18.22,-8.21 27.74,-11.02 52.43,-17.03 19.93,-4.85 42.94,-6.69 2.26,-0.18 3.73,0.39 a 0.19,0.18 34.6 0 1 0.06,0.31 z"
       id="path636" />
    <path
       fill="#fafefe"
       d="m 694.29,264.25 q -6.3,5.3 -9.1,7.94 -9.89,9.31 -14.88,20.12 -10.5,22.78 -8.41,49.13 a 0.52,0.51 -6.5 0 1 -0.45,0.55 l -21.39,3.11 a 0.56,0.54 -11 0 1 -0.62,-0.4 q -1.09,-4.51 -4.19,-19.45 -2.25,-10.83 -7.28,-25.08 -3.98,-11.29 -10.65,-21.24 -7.14,-10.66 -16.38,-16.37 -14.72,-9.08 -32.4,-3.81 -1.23,-0.7 -2.38,-0.03 a 1.69,1.09 -46.9 0 1 -0.92,0.23 q -2.87,-0.34 -0.96,-1.85 a 0.9,0.88 -21.6 0 0 0.35,-0.78 q -0.29,-3.49 3.44,-3.89 5.04,-0.53 1.63,-3.27 a 2.13,2.12 57.5 0 0 -1.84,-0.41 q -10.4,2.55 -18.62,0.62 -0.48,-0.11 -0.96,0.02 -2.77,0.79 -5.47,0.12 -2.15,-0.53 -3.19,-0.4 -1.67,0.2 -3.21,0.81 -4.05,1.59 -4.5,1.69 -5.73,1.35 -12.35,1.45 -0.48,0.01 -0.48,-0.35 a 0.47,0.37 -85.7 0 0 -0.31,-0.46 q -3.85,-0.65 -6.96,-3.29 a 2.39,2.36 54.3 0 0 -2.41,-0.41 q -1.13,0.44 -2.62,-0.13 -0.96,-0.38 -1.64,0.02 a 1.26,0.84 -43.4 0 1 -0.87,0.15 q -3.19,-0.99 -6.5,-0.27 -3.52,0.76 -6.59,-0.42 -1.54,-0.59 -3.12,-0.11 -4.14,1.24 -6.58,0.86 -7.33,-1.14 -14.73,-0.69 -2.67,0.17 -6,-0.46 -4.08,-0.77 -8.05,0.66 -2.8,1 -2.95,1.05 -1.93,0.61 -3.7,1.27 -2.06,0.76 -2.03,2.86 l 0.05,4.44 q -15.64,-2.86 -28.03,6.47 l -0.09,-4.19 a 0.62,0.61 -85.5 0 0 -0.5,-0.6 q -0.88,-0.16 -1.77,-0.13 -1.3,0.04 -2.22,-0.15 -7.08,-1.49 -13.96,1.57 -2.83,1.26 -6.06,1.88 -3.86,0.73 -6.1,1.51 -10.72,3.7 -20.34,4.61 -5.31,0.5 -8.19,1.56 -2.06,0.76 -7.33,0.54 -1.89,-0.09 -3.41,0.3 -1.69,0.43 -3.35,0.95 -0.45,0.14 -0.96,0.06 -3.31,-0.53 -6.32,1.53 -1.08,0.74 -2.02,-0.02 a 0.53,0.43 38.2 0 0 -0.7,0.01 q -0.45,0.58 -0.47,1.36 -4.81,-5.34 -10.75,-9.33 l 9.75,-7.92 q 41.51,-29.71 92.81,-45.23 34.65,-10.47 67.19,-12.6 41.08,-1.88 76.25,6.29 40.03,9.3 71.56,24.44 24.83,11.92 51.25,32.75 1.25,0.98 3.98,0.81 z"
       id="path638" />
    <path
       fill="#eafefd"
       d="m 568.54,258.75 q -18.5,7.95 -27.73,25.87 -3.65,7.09 -6.56,16.38 -10.04,32 -16.98,61.1 -1.49,6.25 -3.07,10.63 -1.83,5.08 -4.02,10.33 -0.35,0.83 -0.66,-0.01 -1.04,-2.84 -2.3,-5.31 -3.67,-7.15 -5.89,-14.86 -1.19,-4.15 -1.22,-4.26 -6.32,-20.9 -12.34,-41.89 -0.85,-2.96 -1.86,-5.77 -1.03,-2.84 -2.06,-5.69 -0.03,-0.08 -2.08,-6.08 -5.6,-16.43 -17.73,-28.98 -8.49,-8.79 -19.97,-12.43 l -0.05,-4.44 q -0.03,-2.1 2.03,-2.86 1.77,-0.66 3.7,-1.27 0.15,-0.05 2.95,-1.05 3.97,-1.43 8.05,-0.66 3.33,0.63 6,0.46 7.4,-0.45 14.73,0.69 2.44,0.38 6.58,-0.86 1.58,-0.48 3.12,0.11 3.07,1.18 6.59,0.42 3.31,-0.72 6.5,0.27 a 1.26,0.84 -43.4 0 0 0.87,-0.15 q 0.68,-0.4 1.64,-0.02 1.49,0.57 2.62,0.13 a 2.39,2.36 54.3 0 1 2.41,0.41 q 3.11,2.64 6.96,3.29 a 0.47,0.37 -85.7 0 1 0.31,0.46 q 0,0.36 0.48,0.35 6.62,-0.1 12.35,-1.45 0.45,-0.1 4.5,-1.69 1.54,-0.61 3.21,-0.81 1.04,-0.13 3.19,0.4 2.7,0.67 5.47,-0.12 0.48,-0.13 0.96,-0.02 8.22,1.93 18.62,-0.62 a 2.13,2.12 57.5 0 1 1.84,0.41 q 3.41,2.74 -1.63,3.27 -3.73,0.4 -3.44,3.89 a 0.9,0.88 -21.6 0 1 -0.35,0.78 q -1.91,1.51 0.96,1.85 a 1.69,1.09 -46.9 0 0 0.92,-0.23 q 1.15,-0.67 2.38,0.03 z"
       id="path640" />
    <path
       fill="#a5a5a7"
       d="m 716.79,253.75 q 0.66,0.75 0.71,1.79 l -4.25,1 q -1.6,-0.4 0.06,-0.8 2.04,-0.49 3.48,-1.99 z"
       id="path642" />
    <path
       fill="#150134"
       d="m 299.5,255.29 q 9.13,3.65 11.44,5.02 5.1,3.05 10.56,5.4 5.94,3.99 10.75,9.33 10.83,11.46 17.4,25.79 6.05,13.17 6.6,29.17 0.28,8.08 0.1,11.44 a 0.49,0.48 -87.1 0 0 0.46,0.52 q 11.65,0.49 22.9,3.59 a 0.44,0.43 -77.9 0 0 0.55,-0.36 q 2.4,-15.89 6.66,-31.36 3.88,-14.11 5.84,-19.11 7.13,-18.27 23.28,-30.47 12.39,-9.33 28.03,-6.47 11.48,3.64 19.97,12.43 12.13,12.55 17.73,28.98 2.05,6 2.08,6.08 1.03,2.85 2.06,5.69 1.01,2.81 1.86,5.77 6.02,20.99 12.34,41.89 0.03,0.11 1.22,4.26 2.22,7.71 5.89,14.86 1.26,2.47 2.3,5.31 0.31,0.84 0.66,0.01 2.19,-5.25 4.02,-10.33 1.58,-4.38 3.07,-10.63 6.94,-29.1 16.98,-61.1 2.91,-9.29 6.56,-16.38 9.23,-17.92 27.73,-25.87 17.68,-5.27 32.4,3.81 9.24,5.71 16.38,16.37 6.67,9.95 10.65,21.24 5.03,14.25 7.28,25.08 3.1,14.94 4.19,19.45 a 0.56,0.54 -11 0 0 0.62,0.4 l 21.39,-3.11 a 0.52,0.51 -6.5 0 0 0.45,-0.55 q -2.09,-26.35 8.41,-49.13 4.99,-10.81 14.88,-20.12 2.8,-2.64 9.1,-7.94 9.1,-4.8 18.96,-7.71 l 4.25,-1 q 6.27,-1.28 12.13,0.2 5.06,1.28 10.37,5.56 14.13,11.4 18.19,29.79 2.47,17.35 0.82,34.75 -1.92,15.88 -7.33,31.28 -0.76,2.15 -0.18,3.82 1.1,3.13 4,6.06 20.64,20.8 18.43,51.26 -1.19,16.3 -9.68,30.17 -1.41,2.3 -2.7,4.69 a 1.03,1.03 47.6 0 0 -0.04,0.9 q 4.96,11.4 11.8,18.67 8.83,9.37 24.5,22.5 4.55,3.81 8.7,8.05 6.82,6.98 6.93,15.79 0.08,6.63 -3.84,14.33 -3.49,6.83 -9.16,12.08 -8.79,8.12 -19.52,14.48 -4.23,2.51 -8.37,3.54 -4.45,1.1 -9.05,1.5 a 0.84,0.83 9.4 0 0 -0.7,0.49 q -6.7,15.13 -20.38,24.45 -3.7,2.52 -7.15,5.7 a 0.91,0.89 61.1 0 0 -0.26,0.94 q 2.24,7.31 2.99,14.96 0.9,9.25 -1.34,24.52 -1.04,7.1 -2,14.22 -1.44,10.67 -5.21,20.74 -12.54,33.43 -39.74,56.49 -17.43,14.77 -35.67,28.53 -1.41,-1.67 -2.73,-0.44 -5.25,4.94 -11.11,6.68 -2.83,0.84 -4.41,1.96 -2.88,2.05 -4.04,3.3 -0.91,0.99 0.25,1.54 -2.44,2.07 -5.5,3 -1.88,-2.14 -3.94,-4.1 -1.94,-1.85 -2.35,-5.94 1.35,-7.72 6.6,-12.94 2.67,-2.65 3.66,-6.14 -2.49,-16.18 -15.53,-24.36 -12.44,-7.8 -25.48,-14.55 -32.51,-16.83 -62.19,-38.26 -26.47,-19.13 -43.71,-48.31 -9.39,-15.91 -13.59,-32.5 -1.03,-4.1 -1.53,-8.44 -0.49,-4.26 -0.69,-8.59 -0.04,-0.8 -0.47,-0.12 -0.61,0.97 -1.1,1.91 -0.56,1.06 -1.22,1.82 -21.05,23.98 -41.73,48.23 -3.43,3.88 -13.54,15.94 -20.01,23.85 -34.13,50.12 -10.15,18.89 -8.56,41.69 0.3,4.25 4.5,14.29 1.82,5.54 3.31,7.15 5.23,5.62 1.9,12.81 -10.94,-0.82 -17.27,-10.94 -4.76,-7.6 -6.75,-17 -2.43,-11.4 -2.59,-21.81 -0.12,-7.27 3.64,-13.33 A 0.48,0.48 31 0 0 353.57,698 q -16.28,-9.56 -34.13,-22.44 -16.11,-11.61 -23.31,-29.16 -3.08,-7.49 -4.91,-15.82 -1.78,-8.14 -1.76,-16.58 0.03,-8.68 1.07,-18.17 a 1.17,1.16 18 0 0 -0.59,-1.15 q -18.57,-10.42 -28.53,-28.16 -0.98,-1.75 -2.95,-2.07 -7.44,-1.19 -14.4,-4.76 -7.12,-3.65 -19.2,-13.28 -9.27,-7.39 -12.55,-17.22 -3.26,-9.77 0.71,-18.62 2.02,-4.5 8.87,-11.54 10.26,-10.54 17.42,-16.72 10.08,-8.69 12.13,-11.62 5.41,-7.77 9.72,-17.13 a 1.04,1.04 -49.1 0 0 -0.07,-1 q -14.65,-23.36 -13.5,-50.81 0.31,-7.51 2.22,-12.19 5.88,-14.38 17.42,-25.4 a 0.92,0.92 -35.8 0 0 0.18,-1.09 q -4.54,-8.54 -6.38,-18.13 -1.2,-6.29 -1.22,-6.35 -1.75,-8.01 -3.64,-16.1 -0.1,-4.81 -0.5,-9.64 -0.35,-4.21 -0.07,-8.71 0.26,-4.31 0.22,-8.76 1.62,-10.16 7.62,-20.69 6.03,-10.6 16.12,-16.13 9.05,-4.95 19.94,-3.27 z m -27.43,44.45 q -2.25,11.98 0.43,23.51 2.68,11.56 7,24.5 0.84,2.51 2.71,11.25 -0.28,2.71 0.61,2.05 0.71,-0.53 0.84,-0.59 25.08,-12.23 53.84,-17.46 3.08,-0.56 4.93,-0.57 a 0.4,0.38 -6.4 0 0 0.39,-0.47 q -1.71,-7.01 -2.3,-14.21 -1.22,-15 -8.37,-28.17 -7.66,-14.12 -20.94,-22.53 -4.6,-2.92 -8.84,-4.33 -5.28,-1.76 -9.87,-1.47 -4.42,0.28 -8.94,3.81 -5.02,3.93 -6.87,8.06 -3.56,7.92 -4.62,16.62 z m 432.68,-23.28 q -11.48,7.19 -17.75,19.25 -9.45,16.88 -10.33,36.29 -0.24,5.1 -0.57,10.19 a 0.53,0.52 5.7 0 0 0.47,0.56 q 11.01,1.25 21.68,4.21 l 14,4.08 q 10.09,5.36 21.21,7.96 2.15,1.71 2.11,-0.65 -0.02,-1.07 0.11,-1.67 2.28,-10.01 4.88,-17.37 5.2,-14.72 4,-29.57 0.19,-9.56 -3.66,-18.37 -0.74,-5.34 -4.84,-10.93 -3.89,-5.32 -7.12,-7.38 -2.82,-1.79 -6.19,-1.79 -9.8,0.01 -18,5.19 z M 555.5,291.21 q -4.1,8.35 -7.2,16.98 -3.69,-0.34 -4.3,3.81 -1.43,9.68 -5.93,20.64 -1.49,3.61 -1.82,5.86 -1.37,9.3 -4.28,18.24 -1.33,4.05 -1.46,8.31 -0.02,0.82 0.23,1.36 0.64,1.32 1.72,0.09 -1.91,6.88 -2.5,14 -1.66,9.43 -1.71,22.25 -0.04,9.72 2.58,18.2 1.05,3.39 5.69,12.65 3.12,6.22 5.85,12.63 a 0.37,0.35 58.3 0 0 0.57,0.15 l 2.1,-1.88 q 12.67,-8.34 23.96,-18.41 3.43,-3.95 5.29,-8.59 l 1.17,-2.5 q 4,-15.34 5.35,-19.19 2.18,-6.2 7.73,-12.81 5.51,-6.95 12.46,-12.46 8.84,-7.43 18.78,-13.27 2.56,-1.51 5.58,-2.38 a 0.53,0.52 -16.3 0 0 0.36,-0.64 q -2.32,-8.34 -4,-16.24 -1.87,-8.77 -4.23,-17.41 -3.51,-12.83 -5.11,-17.16 -2.61,-7.09 -6.54,-13.57 -3.36,-5.55 -6.99,-9.09 -4.59,-4.47 -9.66,-6.47 -12.61,-4.97 -24,3.88 -5.54,4.3 -9.69,13.02 z m -147.79,9.04 q -5.35,12.67 -7.71,26.21 -3.23,13.97 -4.64,28.23 a 0.93,0.75 -74 0 0 0.34,0.81 q 0.95,0.62 2.44,0.33 13.19,6.38 24.07,16.42 8.74,7.37 15.28,16.74 4.68,6.7 6.76,13.76 2.07,7.05 4.12,12.3 2.55,7.09 9.13,11.99 l 1.31,1.42 q 11.61,8.72 23.94,15.73 a 0.41,0.41 23.5 0 0 0.59,-0.23 q 2.49,-7.64 5.07,-15.25 0.01,-0.04 2.51,-6.73 3.88,-10.36 3.62,-21.32 -0.12,-4.75 -1.99,-13.18 -1.44,-6.53 -2.88,-13.07 -1.48,-6.75 -3.73,-13.16 -5.74,-14.82 -10.13,-29.95 -3.58,-12.31 -7.69,-24.47 -3.9,-11.53 -10.31,-20.89 -4.23,-6.19 -10.61,-9.76 -6.29,-3.51 -12.94,-2.84 -7.25,0.73 -12.82,5.6 -9.38,8.18 -13.73,21.31 z m -135.89,81.27 q -13.93,19.32 -6.98,41.82 0.06,0.18 2.5,6.31 1.21,3.04 1.98,6.52 0.44,2.01 0.63,-0.04 0.55,-6.38 3.05,-11.72 2.01,-4.31 4.76,-5.73 3.79,-1.94 8.4,0.93 2.95,1.83 2.34,5.64 -1.26,7.91 -3.99,14.65 -4.4,10.87 -9.26,21.56 -10.96,21.73 -31.18,35.76 l -2.65,2.24 a 0.41,0.39 42.1 0 0 0.05,0.64 q 1.87,1.24 4.53,2.4 7.32,3.2 16.28,8 4.7,2.52 6.53,6.19 2.38,4.75 -2.39,7.75 l -1.88,12.81 -4.67,6.55 q -1.53,2.12 -4.09,3.74 -0.44,0.27 0.03,0.5 9.68,4.67 19.92,5.43 22.93,1.72 42.86,-8.46 4.37,-2.23 9.76,-6.32 4.64,-3.53 9.21,-7.17 3.33,-2.65 5.25,-2.71 3.53,-0.1 3.37,2.73 -0.04,0.64 -0.76,3.53 -2.94,11.83 -13.67,19.18 -22.6,15.49 -50.96,13.71 -0.73,-0.05 -0.22,0.48 5.52,5.78 11.87,10.37 4.97,3.6 8.56,4.4 l 3.13,0.76 a 0.58,0.53 -83.2 0 1 0.41,0.57 l -0.75,26.71 q 0.43,14.23 5.94,27.04 3.59,8.35 7.21,13.88 4.45,6.79 10.87,11.52 9.01,6.63 24.01,15.66 3.02,1.82 5.34,4.31 a 0.38,0.37 38.2 0 0 0.6,-0.07 q 12.1,-21.09 26.32,-40.05 18.77,-23.78 38.46,-46.79 5.74,-5.34 17.77,-18.94 6.08,-6.87 12.08,-13.8 6.29,-7.27 8.4,-11.96 3.22,-7.15 3.5,-15.3 l 4.73,-32.53 9.23,-38.93 1.8,-4.08 a 0.54,0.54 -64.7 0 0 -0.25,-0.7 l -4.05,-1.97 q -10.55,-5.6 -20.46,-12.29 -4.6,-3.38 -8.82,-7.23 -8.77,-8.01 -12.89,-19.17 -2.25,-6.1 -4.07,-12.35 -3.27,-11.26 -11.44,-19.6 -17.69,-17.63 -38.57,-25.4 -22.35,-8.32 -47.53,-2.38 -6.24,1.47 -21.47,6.13 -20.35,6.23 -24,7.5 -6.96,2.42 -14.68,7.77 z m 323.93,18.94 q -2.91,6.19 -4.19,11.6 -1.85,7.79 -4.28,13.82 l -4.32,6.87 q -6.71,9.52 -16.31,16.14 -10.12,6.97 -20.65,13.32 -1.93,0.71 -3.27,2.1 -1.16,1.19 -1.26,3.41 -1.13,23.82 1.32,47.53 3.39,25.5 16.52,44.44 10.09,14.54 26.76,29.2 1.43,1.26 3.11,2.42 1.63,1.13 3.26,2.25 1.9,1.32 5.02,0.94 l -1.26,1.39 -13.09,9.59 q -10.08,-9.31 -22.3,-21.79 -17.11,-17.49 -25.35,-40.05 -6.71,-18.37 -8.14,-37.9 -1.51,-20.81 -1.07,-37.99 0.1,-4 2.04,-8.5 l 3.64,-5.11 a 0.61,0.56 -49 0 0 -0.02,-0.75 q -5.96,-6.5 -7.91,-15.09 -2.65,-11.66 -6.77,-22.87 -2.36,-6.42 -3.09,-10.22 -1.01,-5.25 -1.37,-10.62 -0.02,-0.39 -0.14,-0.65 -0.44,-1.01 -0.88,0.31 -0.45,1.34 -0.25,8.5 0.04,1.36 -0.56,5.35 -2.31,-0.61 -2.69,1.15 -0.52,2.41 -1.96,4.62 -1.71,2.63 -2.24,4.26 -2.77,8.61 -4.86,17.41 -0.37,1.54 -1.73,3.98 -2.73,4.87 0.02,10.24 -2.92,8.78 -7.23,24.49 -5.45,19.88 -7.71,37.75 -2.68,17.52 -2.96,35.25 -0.2,12.33 2.42,27 2.3,12.86 7.5,23.04 4.99,11.51 13.19,22.52 9.75,13.1 21.44,23.5 5.6,4.98 15.5,12.62 19.34,14.93 40.92,26.54 10.62,5.72 33.39,18.59 7.89,4.47 13.56,8.73 8.73,7.29 13.69,17.52 2.77,5.71 3.03,12.35 l -0.41,4.17 q -0.12,1.17 0.65,0.34 2.81,-3.07 6.09,-5.64 4.12,-3.23 4.19,-3.3 7.66,-6.35 15.3,-12.73 7.78,-5.64 14.75,-12.25 23.57,-23.32 32.63,-55.32 3.27,-11.54 5.33,-27.18 1.53,-11.63 -0.17,-21.6 l -2.47,-21.33 q 3.12,-1.79 5.63,-2.85 5.43,-2.3 10.07,-5.91 1.46,-1.13 7.84,-7.46 0.39,-0.39 -0.16,-0.36 l -4.49,0.3 q -32.93,0.64 -55.44,-21.85 -5.41,-5.42 -7.56,-13.65 -0.29,-1.14 -0.23,-2.11 0.07,-1.15 0.38,-2.12 0.68,-2.14 2.66,-1.07 7.6,4.12 14.32,9.37 21.29,16.65 47.9,16.82 6.51,0.04 12.35,-1.26 5.84,-1.3 11.92,-3.67 a 0.32,0.32 55.9 0 0 0.1,-0.53 q -5.9,-5.37 -8.65,-12.01 -0.97,-5.56 -0.77,-11.2 a 0.91,0.78 -75.7 0 0 -0.39,-0.78 l -2.88,-1.73 q 0.34,-7.78 6.6,-10.94 9.09,-4.58 11.25,-5.25 6.39,-1.97 12.02,-5.54 a 0.4,0.36 -41.8 0 0 0.07,-0.62 L 779,497.71 q -14.85,-12.05 -26.03,-27.43 -11.08,-20.19 -17.28,-43.22 -0.51,-1.88 -0.3,-3.55 0.21,-1.68 1.74,-2.85 2.63,-2.04 5.95,-2.51 2.22,-0.32 3.72,0.5 1.52,0.85 2.89,2.66 4.06,5.38 3.56,12.21 -0.17,2.31 0.84,0.22 1.31,-2.73 2.37,-6.24 6.35,-21.21 -4.42,-40.25 -6.4,-9.53 -17.04,-13 -11.64,-3.79 -36.87,-11 -8.15,-2.33 -22.13,-4.25 -17.07,-2.34 -32.06,3.11 -2.76,1.01 -7.12,3.25 -3.47,1.78 -6.95,3.56 -13.77,7.05 -24.73,17.97 -5.95,5.92 -9.39,13.57 z M 243.1,538.17 q 3.87,0.18 6.34,-2.23 3.86,-3.79 5.35,-7.44 3.76,-5.54 -1.98,-9.31 -10.1,-6.64 -24.21,-6.7 a 1.56,1.56 -82.5 0 0 -1.51,1.16 q -1.11,4.28 0.82,9.17 4.46,11.35 15.19,15.35 z m 531.66,-0.97 q 3.14,2.23 6.49,0.8 10.47,-4.48 15.04,-15.25 2.42,-4.39 1.53,-7.98 -0.48,-1.91 -2.45,-1.84 -11.18,0.39 -20.22,3.73 -5.6,2.07 -7.75,4.66 -3.81,4.58 1.35,10.68 2.93,3.47 6.01,5.2 z"
       id="path644" />
    <path
       fill="#eafefd"
       d="m 416.04,264.25 q -16.15,12.2 -23.28,30.47 -1.96,5 -5.84,19.11 -4.26,15.47 -6.66,31.36 a 0.44,0.43 -77.9 0 1 -0.55,0.36 q -11.25,-3.1 -22.9,-3.59 a 0.49,0.48 -87.1 0 1 -0.46,-0.52 q 0.18,-3.36 -0.1,-11.44 -0.55,-16 -6.6,-29.17 -6.57,-14.33 -17.4,-25.79 0.02,-0.78 0.47,-1.36 a 0.53,0.43 38.2 0 1 0.7,-0.01 q 0.94,0.76 2.02,0.02 3.01,-2.06 6.32,-1.53 0.51,0.08 0.96,-0.06 1.66,-0.52 3.35,-0.95 1.52,-0.39 3.41,-0.3 5.27,0.22 7.33,-0.54 2.88,-1.06 8.19,-1.56 9.62,-0.91 20.34,-4.61 2.24,-0.78 6.1,-1.51 3.23,-0.62 6.06,-1.88 6.88,-3.06 13.96,-1.57 0.92,0.19 2.22,0.15 0.89,-0.03 1.77,0.13 a 0.62,0.61 -85.5 0 1 0.5,0.6 z"
       id="path646" />
    <path
       fill="#fdb577"
       d="m 282.21,359 20.48,-7.85 a 1.6,1.33 67.4 0 0 0.63,-2.03 l -1.26,-2.92 3.14,2.89 a 1.04,0.61 52.2 0 0 0.78,0.31 q 4.08,-0.87 7.55,-3.18 a 1.38,1.25 82.5 0 0 0.53,-0.77 q 0.46,-1.75 1.44,-3.95 4.33,-9.7 1.57,-20.27 -7.75,-29.71 -37.2,-39.69 a 0.61,0.6 23.5 0 0 -0.73,0.28 q -3.92,7.19 -4.68,14.93 -0.76,1.16 -1.01,2.54 -0.32,1.79 -1.38,0.45 1.06,-8.7 4.62,-16.62 1.85,-4.13 6.87,-8.06 4.52,-3.53 8.94,-3.81 4.59,-0.29 9.87,1.47 4.24,1.41 8.84,4.33 13.28,8.41 20.94,22.53 7.15,13.17 8.37,28.17 0.59,7.2 2.3,14.21 a 0.4,0.38 -6.4 0 1 -0.39,0.47 q -1.85,0.01 -4.93,0.57 -28.76,5.23 -53.84,17.46 -0.13,0.06 -0.84,0.59 -0.89,0.66 -0.61,-2.05 z"
       id="path648" />
    <path
       fill="#eeb390"
       d="m 740.9,291.37 q -1.51,2.65 -1.57,5.56 l -0.59,-0.5 a 0.58,0.22 38.3 0 1 -0.27,-0.46 q 2.73,-8.64 -4.22,-13.82 -1.95,-3.13 -4.55,-5.61 -2.24,-2.14 -5.09,-2.06 -2.52,0.07 -3.71,-0.14 -5.54,-0.96 -10.68,1.35 -0.05,0.02 -1.91,1.23 -1.79,1.18 -3.56,-0.46 8.2,-5.18 18,-5.19 3.37,0 6.19,1.79 3.23,2.06 7.12,7.38 4.1,5.59 4.84,10.93 z"
       id="path650" />
    <path
       fill="#fdb577"
       d="m 601,370.54 q -0.62,-0.31 -0.54,-1.04 2.12,-1.83 2.1,-3.56 -0.11,-9.22 -0.1,-18.44 0.01,-10.81 -2.75,-21.25 -3.18,-12.82 -8.77,-23.44 -1.89,-3.58 -5.06,-6.58 -2.53,-2.4 -4.65,-2.61 -3.21,-0.32 -5.17,3.44 -5.53,10.6 -7.46,16.68 -6.36,19.99 -12.58,40.04 -0.79,2.53 -1.2,5 -0.42,2.56 -0.8,5.11 -0.24,1.66 -1.41,4.34 -2.21,5.12 0.47,9.97 1.07,1.94 1.65,3.89 1.54,5.25 6.23,8.41 0.04,4.54 1.54,8.79 2.58,6.7 7.25,12.18 2.12,2.48 2.58,5.72 0.18,1.27 1.11,0.5 0.23,-0.85 0.85,-0.19 -1.86,4.64 -5.29,8.59 l -3.25,-1.55 q -6.87,-3.88 -9.56,-5.98 -7.72,-6.02 -10.11,-15.54 1.26,-2.75 1.09,-5.56 -0.04,-0.67 -0.67,-1.88 -0.5,-0.95 -0.55,-2.03 -0.1,-2.02 -0.11,-2.1 -0.97,-6.65 -1.09,-11.2 -0.2,-7.26 -1.43,-13.32 -0.53,-2.58 -1.93,-4.05 -1.77,-1.88 -4,-2.47 -1.84,-0.49 -1.25,-2.3 1.37,-4.22 2,-7.63 0.37,-2 2.11,-6.48 0.81,-2.08 2.71,-10.82 0.28,-1.26 1.25,-2.99 0.82,-1.48 1.19,-3.1 0.83,-3.66 1.14,-4.67 0.55,-1.76 0.79,-3.6 0.27,-1.99 0.85,-3.53 1.16,-3.03 2.32,-7.04 2.28,-7.87 6.51,-15.8 a 0.77,0.62 -55.7 0 0 -0.07,-0.85 q -0.53,-0.51 -1.44,-0.39 4.15,-8.72 9.69,-13.02 11.39,-8.85 24,-3.88 5.07,2 9.66,6.47 3.63,3.54 6.99,9.09 3.93,6.48 6.54,13.57 1.6,4.33 5.11,17.16 2.36,8.64 4.23,17.41 1.68,7.9 4,16.24 a 0.53,0.52 -16.3 0 1 -0.36,0.64 q -3.02,0.87 -5.58,2.38 -9.94,5.84 -18.78,13.27 z"
       id="path652" />
    <path
       fill="#fdb879"
       d="m 485.94,361.25 q -1.43,-0.28 -2.44,0.1 a 1.33,1.08 -84.4 0 0 -0.65,0.66 q -0.96,2.26 -0.39,4.49 0.95,3.68 0.96,3.76 1.03,9.24 0.44,18.49 -0.27,4.22 -1.44,8.38 -1.34,4.8 -2.73,8.06 -3.76,8.78 -11.95,15.33 -4.66,4.07 -10.24,6.52 -6.58,-4.9 -9.13,-11.99 12.6,-6.16 14.84,-20.05 0.98,-8.02 -0.15,-16.01 -3.02,-21.34 -11.27,-41.24 1.8,-2.61 4.91,-3.23 a 0.41,0.41 -16.7 0 0 0.3,-0.55 q -4.2,-10.2 -7.51,-20.72 -2.71,-8.64 -8,-15.99 -5.11,-7.1 -10.43,-0.7 -4.46,5.38 -7.65,14.29 -5.7,15.94 -5.82,32.9 -0.01,2.34 -1.41,6.4 a 2.23,2.22 -87.1 0 1 -1.6,1.45 q -1.99,0.46 -4.22,0.48 -0.57,0 -4.17,-0.52 -2.43,-0.36 -4.86,0.07 -2.43,0.42 -2.8,0.54 -2.47,0.74 -0.39,3.66 -1.49,0.29 -2.44,-0.33 a 0.93,0.75 -74 0 1 -0.34,-0.81 q 1.41,-14.26 4.64,-28.23 1.03,0.1 1.89,-0.37 a 1.23,1.01 85.4 0 0 0.53,-0.76 q 2.13,-9.75 6.52,-23.14 0.54,-1.65 -1.23,-1.94 4.35,-13.13 13.73,-21.31 5.57,-4.87 12.82,-5.6 6.65,-0.67 12.94,2.84 6.38,3.57 10.61,9.76 6.41,9.36 10.31,20.89 4.11,12.16 7.69,24.47 4.39,15.13 10.13,29.95 z"
       id="path654" />
    <path
       fill="#fdb570"
       d="m 734.25,282.15 q -11.1,0.29 -18.44,6.16 -11.02,8.84 -15.32,22.61 -1.81,5.84 -2.48,10.06 -0.81,5.21 0,10.46 0.7,4.48 1.53,7.09 1.11,3.51 3.47,6.47 1.85,2.34 6.53,3.95 2.22,0.77 2.96,-1.47 0.48,-1.44 2.96,-2.08 l -3.21,5.64 -14,-4.08 q 0.73,-0.46 0.47,-1.02 -0.16,-0.34 -0.73,-0.52 -1.68,-0.51 -3.34,-1.09 -1.62,-0.56 -3.39,-0.82 -5.93,-0.87 -11.28,-2.6 a 1.84,1.83 -79.9 0 1 -1.26,-1.81 q 0.43,-11.82 2.53,-22.6 0.58,-2.98 5.75,-17.31 0.04,-0.1 0.69,-1.28 0.65,-1.19 -0.69,-2.2 6.27,-12.06 17.75,-19.25 1.77,1.64 3.56,0.46 1.86,-1.21 1.91,-1.23 5.14,-2.31 10.68,-1.35 1.19,0.21 3.71,0.14 2.85,-0.08 5.09,2.06 2.6,2.48 4.55,5.61 z"
       id="path656" />
    <path
       fill="#ee8954"
       d="m 302.06,346.2 q -4.43,-7.34 -6.12,-9.64 -13.53,-18.4 -21.48,-39.81 0.76,-7.74 4.68,-14.93 a 0.61,0.6 23.5 0 1 0.73,-0.28 q 29.45,9.98 37.2,39.69 2.76,10.57 -1.57,20.27 -0.98,2.2 -1.44,3.95 a 1.38,1.25 82.5 0 1 -0.53,0.77 q -3.47,2.31 -7.55,3.18 a 1.04,0.61 52.2 0 1 -0.78,-0.31 z"
       id="path658" />
    <path
       fill="#ef8c58"
       d="m 734.25,282.15 q 6.95,5.18 4.22,13.82 a 0.58,0.22 38.3 0 0 0.27,0.46 l 0.59,0.5 q -3.95,8.01 -11.89,28.01 -3.72,9.36 -11.98,20.46 -2.48,0.64 -2.96,2.08 -0.74,2.24 -2.96,1.47 -4.68,-1.61 -6.53,-3.95 -2.36,-2.96 -3.47,-6.47 -0.83,-2.61 -1.53,-7.09 -0.81,-5.25 0,-10.46 0.67,-4.22 2.48,-10.06 4.3,-13.77 15.32,-22.61 7.34,-5.87 18.44,-6.16 z"
       id="path660" />
    <path
       fill="#554e8a"
       d="m 758.19,291.09 q 13.8,14.11 25.27,29.66 -0.69,0.07 -0.74,0.6 -0.04,0.31 0.27,0.74 5.01,7.02 10.45,13.72 4.96,6.11 13.5,21.75 0.85,1.56 2.27,1.69 6.81,12.5 12.47,25.49 0.27,3.92 2.07,7.47 -0.83,0.71 -0.35,1.57 a 0.32,0.3 70.4 0 1 -0.2,0.46 q -1.04,0.2 -1.73,1.05 a 1.73,1.22 -70.2 0 1 -0.76,0.53 q -7.01,1.92 -14.27,2.23 -0.43,0.02 -0.7,0.2 -0.31,0.21 -0.54,0.51 a 0.35,0.33 43.2 0 1 -0.52,0 q -0.44,-0.5 -1.18,0.03 -16.56,-39.95 -44.49,-72.95 1.65,-17.4 -0.82,-34.75 z"
       id="path662" />
    <path
       fill="#ecbe97"
       d="m 555.5,291.21 q 0.91,-0.12 1.44,0.39 a 0.77,0.62 -55.7 0 1 0.07,0.85 q -4.23,7.93 -6.51,15.8 -1.16,4.01 -2.32,7.04 -0.58,1.54 -0.85,3.53 -0.24,1.84 -0.79,3.6 -0.31,1.01 -1.14,4.67 -0.37,1.62 -1.19,3.1 -0.97,1.73 -1.25,2.99 -1.9,8.74 -2.71,10.82 -1.74,4.48 -2.11,6.48 -0.63,3.41 -2,7.63 -0.59,1.81 1.25,2.3 2.23,0.59 4,2.47 1.4,1.47 1.93,4.05 1.23,6.06 1.43,13.32 0.12,4.55 1.09,11.2 0.01,0.08 0.11,2.1 0.05,1.08 0.55,2.03 0.63,1.21 0.67,1.88 0.17,2.81 -1.09,5.56 -1.68,-5.76 -2.27,-11.78 -0.99,-10.13 -1.97,-20.26 -0.08,-0.88 -0.51,-1.86 -0.4,-0.92 -0.67,-1.87 -0.46,-1.62 -1.89,-2.36 a 1.21,1.07 -87.6 0 1 -0.56,-0.69 q -0.38,-1.15 -1.67,-0.7 0.19,-1.5 -1.3,-1.29 -1.28,0.18 -1.78,-0.96 0.72,-4.87 2.79,-12.25 7.11,-25.29 12.05,-40.81 3.1,-8.63 7.2,-16.98 z"
       id="path664" />
    <path
       fill="#5a537e"
       d="m 740.9,291.37 q 3.85,8.81 3.66,18.37 -0.77,14 -2.37,19.2 -4.61,14.96 -8.73,30.06 -11.12,-2.6 -21.21,-7.96 l 3.21,-5.64 q 8.26,-11.1 11.98,-20.46 7.94,-20 11.89,-28.01 0.06,-2.91 1.57,-5.56 z"
       id="path666" />
    <path
       fill="#ee9157"
       d="m 599.71,326.25 q -1.14,0.22 -2.23,-0.09 a 1.31,1.08 79.7 0 1 -0.71,-0.6 q -2.72,-5.02 -8.26,-6.85 -4.31,-1.43 -7.57,2.23 -4.89,5.49 -7.07,10.65 -11.92,28.22 -12.91,58.91 -4.69,-3.16 -6.23,-8.41 -0.58,-1.95 -1.65,-3.89 -2.68,-4.85 -0.47,-9.97 1.17,-2.68 1.41,-4.34 0.38,-2.55 0.8,-5.11 0.41,-2.47 1.2,-5 6.22,-20.05 12.58,-40.04 1.93,-6.08 7.46,-16.68 1.96,-3.76 5.17,-3.44 2.12,0.21 4.65,2.61 3.17,3 5.06,6.58 5.59,10.62 8.77,23.44 z"
       id="path668" />
    <path
       fill="#ee9157"
       d="m 451.79,337.75 q -4.12,-8.12 -9.9,-15.15 -2.98,-3.63 -7.2,-4.56 -3.89,-0.85 -7.46,1.49 -3.71,2.43 -5.51,6.51 -1.18,2.68 -1.45,8.11 -0.7,14.26 -0.31,28.55 0,0.07 -0.11,2.59 -0.16,3.71 2.94,5.96 l -0.58,1 q -10.88,-10.04 -24.07,-16.42 -2.08,-2.92 0.39,-3.66 0.37,-0.12 2.8,-0.54 2.43,-0.43 4.86,-0.07 3.6,0.52 4.17,0.52 2.23,-0.02 4.22,-0.48 a 2.23,2.22 -87.1 0 0 1.6,-1.45 q 1.4,-4.06 1.41,-6.4 0.12,-16.96 5.82,-32.9 3.19,-8.91 7.65,-14.29 5.32,-6.4 10.43,0.7 5.29,7.35 8,15.99 3.31,10.52 7.51,20.72 a 0.41,0.41 -16.7 0 1 -0.3,0.55 q -3.11,0.62 -4.91,3.23 z"
       id="path670" />
    <path
       fill="#4d447d"
       d="m 255.82,295.38 q 0.04,4.45 -0.22,8.76 -0.28,4.5 0.07,8.71 0.4,4.83 0.5,9.64 l -0.16,6.76 a 1.71,1.52 67.3 0 1 -0.31,0.91 l -12.2,16.13 q -3.68,2.37 -4.46,6.71 -1.41,3.12 -3.69,5.69 -4.05,5.77 -8.85,15.06 -9.9,19.13 -16.53,37.84 -3.28,9.25 -6.17,19 -6.85,23.11 -10.61,50.22 -1.96,14.12 -1.35,23.94 l -0.11,18.48 q -1.38,3.03 -0.52,6.27 0.02,0.95 -0.47,1.41 a 0.49,0.4 52.8 0 1 -0.67,-0.16 q -0.44,-0.66 -1.12,-1 -0.52,-0.26 -1.43,-0.1 -2.53,0.47 -8.02,0.6 -4.01,0.1 -8,3.54 -1.34,-13.3 -1.25,-20.54 0.61,-49.74 14.44,-95.06 6.52,-21.39 18.07,-45.72 14.34,-30.23 37.68,-58.78 11.81,-14.45 15.38,-18.31 z"
       id="path672" />
    <path
       fill="#ecbe97"
       d="m 687,295.71 q 1.34,1.01 0.69,2.2 -0.65,1.18 -0.69,1.28 -5.17,14.33 -5.75,17.31 -2.1,10.78 -2.53,22.6 a 1.84,1.83 -79.9 0 0 1.26,1.81 q 5.35,1.73 11.28,2.6 1.77,0.26 3.39,0.82 1.66,0.58 3.34,1.09 0.57,0.18 0.73,0.52 0.26,0.56 -0.47,1.02 -10.67,-2.96 -21.68,-4.21 a 0.53,0.52 5.7 0 1 -0.47,-0.56 q 0.33,-5.09 0.57,-10.19 0.88,-19.41 10.33,-36.29 z"
       id="path674" />
    <path
       fill="#685a85"
       d="m 274.46,296.75 q 7.95,21.41 21.48,39.81 1.69,2.3 6.12,9.64 l 1.26,2.92 a 1.6,1.33 67.4 0 1 -0.63,2.03 L 282.21,359 q -1.87,-8.74 -2.71,-11.25 -4.32,-12.94 -7,-24.5 -2.68,-11.53 -0.43,-23.51 1.06,1.34 1.38,-0.45 0.25,-1.38 1.01,-2.54 z"
       id="path676" />
    <path
       fill="#eeb390"
       d="m 407.71,300.25 q 1.77,0.29 1.23,1.94 -4.39,13.39 -6.52,23.14 a 1.23,1.01 85.4 0 1 -0.53,0.76 q -0.86,0.47 -1.89,0.37 2.36,-13.54 7.71,-26.21 z"
       id="path678" />
    <path
       fill="#0a0216"
       d="m 548.3,308.19 q -4.94,15.52 -12.05,40.81 -2.07,7.38 -2.79,12.25 l -1,5.25 q -1.08,1.23 -1.72,-0.09 -0.25,-0.54 -0.23,-1.36 0.13,-4.26 1.46,-8.31 2.91,-8.94 4.28,-18.24 0.33,-2.25 1.82,-5.86 4.5,-10.96 5.93,-20.64 0.61,-4.15 4.3,-3.81 z"
       id="path680" />
    <path
       fill="#7f668c"
       d="m 744.56,309.74 q 1.2,14.85 -4,29.57 -2.6,7.36 -4.88,17.37 -0.13,0.6 -0.11,1.67 0.04,2.36 -2.11,0.65 4.12,-15.1 8.73,-30.06 1.6,-5.2 2.37,-19.2 z"
       id="path682" />
    <path
       fill="#d3693c"
       d="m 451.79,337.75 q 8.25,19.9 11.27,41.24 1.13,7.99 0.15,16.01 -0.54,0.84 -1.32,1.24 a 0.46,0.42 67.4 0 1 -0.61,-0.28 Q 455.7,378.95 451,361.68 q -2,-7.36 -3.59,-11.59 -2.15,-5.69 -4.75,-11.2 -4.25,-9 -10.6,-13.95 -2.23,-1.75 -3.81,-0.2 -0.93,0.91 -1.01,2.96 -1.01,23.46 2.89,46.61 0.14,0.84 -0.11,1.36 -0.56,1.12 -1.76,0.06 -2.64,-2.35 -5.47,-4.48 -3.1,-2.25 -2.94,-5.96 0.11,-2.52 0.11,-2.59 -0.39,-14.29 0.31,-28.55 0.27,-5.43 1.45,-8.11 1.8,-4.08 5.51,-6.51 3.57,-2.34 7.46,-1.49 4.22,0.93 7.2,4.56 5.78,7.03 9.9,15.15 z"
       id="path684" />
    <path
       fill="#d66c41"
       d="m 599.71,326.25 q 2.76,10.44 2.75,21.25 -0.01,9.22 0.1,18.44 0.02,1.73 -2.1,3.56 -4.44,2.83 -8.48,6.76 -1.06,1.03 -0.49,-0.33 1.31,-3.17 1.53,-6.82 0.4,-6.6 0.41,-6.7 1.96,-16.1 1.62,-32.32 -0.05,-2.37 -0.83,-3.5 -1.19,-1.71 -3.47,-1.84 -3.2,-0.18 -5.59,2.42 -1.54,1.67 -3.22,4.77 -3.14,5.78 -5.02,11.35 -0.95,2.81 -3.39,11.9 -1.76,6.59 -2.95,13.32 -1.4,7.95 -2.83,12.74 -2.79,9.39 -3.73,16.75 -0.18,1.42 -1.52,1.29 -1.5,-4.25 -1.54,-8.79 0.99,-30.69 12.91,-58.91 2.18,-5.16 7.07,-10.65 3.26,-3.66 7.57,-2.23 5.54,1.83 8.26,6.85 a 1.31,1.08 79.7 0 0 0.71,0.6 q 1.09,0.31 2.23,0.09 z"
       id="path686" />
    <path
       fill="#2c2d65"
       d="m 783.46,320.75 q 14.63,18.07 25.75,38.5 -1.42,-0.13 -2.27,-1.69 -8.54,-15.64 -13.5,-21.75 -5.44,-6.7 -10.45,-13.72 -0.31,-0.43 -0.27,-0.74 0.05,-0.53 0.74,-0.6 z"
       id="path688" />
    <path
       fill="#e4fefe"
       d="m 256.17,322.49 q 1.89,8.09 3.64,16.1 0.02,0.06 1.22,6.35 1.84,9.59 6.38,18.13 a 0.92,0.92 -35.8 0 1 -0.18,1.09 q -11.54,11.02 -17.42,25.4 -1.91,4.68 -2.22,12.19 -1.15,27.45 13.5,50.81 a 1.04,1.04 -49.1 0 1 0.07,1 q -4.31,9.36 -9.72,17.13 -2.05,2.93 -12.13,11.62 -7.16,6.18 -17.42,16.72 -6.85,7.04 -8.87,11.54 -3.97,8.85 -0.71,18.62 3.28,9.83 12.55,17.22 12.08,9.63 19.2,13.28 6.96,3.57 14.4,4.76 1.97,0.32 2.95,2.07 9.96,17.74 28.53,28.16 a 1.17,1.16 18 0 1 0.59,1.15 q -1.04,9.49 -1.07,18.17 -0.02,8.44 1.76,16.58 1.83,8.33 4.91,15.82 7.2,17.55 23.31,29.16 17.85,12.88 34.13,22.44 a 0.48,0.48 31 0 1 0.17,0.67 q -3.76,6.06 -3.64,13.33 0.16,10.41 2.59,21.81 1.99,9.4 6.75,17 6.33,10.12 17.27,10.94 5.59,4.03 7.1,4.69 1.57,0.68 5.44,0.81 3.7,0.12 5.02,-2.4 2.49,-4.74 2.44,-10.1 -0.38,-1.64 0.75,-1.75 0.29,5.57 3.16,9.92 2.7,4.12 6.84,7.12 4.46,3.24 9.73,3.15 6.6,-0.12 9.6,-6.94 l 1.21,-0.29 q 6.92,6.84 16.46,9.04 6.84,4.11 16.29,7.25 28.89,9.6 57.49,11.86 18.75,1.48 37.3,-1.13 4.98,-0.7 9.47,-1.13 4.76,-0.46 9.49,-1.14 l 1.21,0.04 q 3.89,8.1 11.42,5.56 2.88,-0.98 4.29,-3.3 1.53,-2.51 1.43,-5.57 17.55,-6.14 33.65,-15.4 3.06,-0.93 5.5,-3 4.29,-3.17 10.5,-5.54 6.05,-2.31 11.54,-7.5 18.24,-13.76 35.67,-28.53 27.2,-23.06 39.74,-56.49 3.77,-10.07 5.21,-20.74 0.96,-7.12 2,-14.22 2.24,-15.27 1.34,-24.52 -0.75,-7.65 -2.99,-14.96 a 0.91,0.89 61.1 0 1 0.26,-0.94 q 3.45,-3.18 7.15,-5.7 13.68,-9.32 20.38,-24.45 a 0.84,0.83 9.4 0 1 0.7,-0.49 q 4.6,-0.4 9.05,-1.5 4.14,-1.03 8.37,-3.54 10.73,-6.36 19.52,-14.48 5.67,-5.25 9.16,-12.08 3.92,-7.7 3.84,-14.33 -0.11,-8.81 -6.93,-15.79 -4.15,-4.24 -8.7,-8.05 -15.67,-13.13 -24.5,-22.5 -6.84,-7.27 -11.8,-18.67 a 1.03,1.03 47.6 0 1 0.04,-0.9 q 1.29,-2.39 2.7,-4.69 8.49,-13.87 9.68,-30.17 2.21,-30.46 -18.43,-51.26 -2.9,-2.93 -4,-6.06 -0.58,-1.67 0.18,-3.82 5.41,-15.4 7.33,-31.28 27.93,33 44.49,72.95 20.99,51.03 23,106.25 0.66,24.86 -3.07,49.35 -1.57,10.3 -3.39,19.71 -4.14,21.32 -11.98,42.46 -20.1,54.22 -55.62,98.88 -14.33,18.01 -36.69,38.02 -19.22,18.04 -41.5,32.08 -26.95,17.31 -57,28.42 -26.15,9.48 -53.5,14.58 -41.18,8.33 -82.82,4.34 -9.22,-0.89 -19.8,-2.75 -33.72,-5.95 -61.32,-16.44 -25.73,-9.78 -53.12,-26.88 -20.3,-12.66 -33.44,-23.6 -23.67,-20.9 -37.81,-36.9 -52.72,-59.62 -73.61,-139.33 -8.22,-31.33 -10.1,-63.75 l 0.11,-18.48 q 1.47,-26.54 6.41,-49.75 7.06,-33.19 21.56,-66.19 4.2,-9.54 15.54,-30.12 2.28,-2.57 3.69,-5.69 l 4.46,-6.71 12.2,-16.13 a 1.71,1.52 67.3 0 0 0.31,-0.91 z"
       id="path690" />
    <path
       fill="#e98250"
       d="m 463.21,395 q -2.24,13.89 -14.84,20.05 -2.05,-5.25 -4.12,-12.3 -2.08,-7.06 -6.76,-13.76 -6.54,-9.37 -15.28,-16.74 l 0.58,-1 q 2.83,2.13 5.47,4.48 1.2,1.06 1.76,-0.06 0.25,-0.52 0.11,-1.36 -3.9,-23.15 -2.89,-46.61 0.08,-2.05 1.01,-2.96 1.58,-1.55 3.81,0.2 6.35,4.95 10.6,13.95 2.6,5.51 4.75,11.2 1.59,4.23 3.59,11.59 4.7,17.27 10.28,34.28 a 0.46,0.42 67.4 0 0 0.61,0.28 q 0.78,-0.4 1.32,-1.24 z"
       id="path692" />
    <path
       fill="#e58151"
       d="m 600.46,369.5 q -0.08,0.73 0.54,1.04 -6.95,5.51 -12.46,12.46 0.1,-0.64 -0.29,-0.76 a 1.03,0.57 -52.6 0 0 -0.85,0.37 q -6.16,6.45 -8.4,15.14 -0.88,3.4 -4.75,16 -0.46,1.5 1.21,1.25 l -1.17,2.5 q -0.62,-0.66 -0.85,0.19 -0.93,0.77 -1.11,-0.5 -0.46,-3.24 -2.58,-5.72 -4.67,-5.48 -7.25,-12.18 1.34,0.13 1.52,-1.29 0.94,-7.36 3.73,-16.75 1.43,-4.79 2.83,-12.74 1.19,-6.73 2.95,-13.32 2.44,-9.09 3.39,-11.9 1.88,-5.57 5.02,-11.35 1.68,-3.1 3.22,-4.77 2.39,-2.6 5.59,-2.42 2.28,0.13 3.47,1.84 0.78,1.13 0.83,3.5 0.34,16.22 -1.62,32.32 -0.01,0.1 -0.41,6.7 -0.22,3.65 -1.53,6.82 -0.57,1.36 0.49,0.33 4.04,-3.93 8.48,-6.76 z"
       id="path694" />
    <path
       fill="#2c2d65"
       d="m 243.5,346.29 -4.46,6.71 q 0.78,-4.34 4.46,-6.71 z"
       id="path696" />
    <path
       fill="#ffffff"
       d="m 418.07,387.9 q -3.8,0.2 -9.32,-1.15 -1.2,-0.29 -2.5,1.04 -18.22,-13.97 -41.02,-17.11 -5.34,-0.73 -8.73,0.32 -7.7,2.39 -12.6,8.53 -4.1,5.14 -5.81,13.4 -3.58,17.32 4.98,33.61 -10.56,10.76 -9.07,25.71 1.68,16.87 18.25,21.46 26.2,5.25 35.52,-19.19 2.86,2.76 5.88,4.6 13.26,8.06 27.37,14.48 0.05,0.03 7.22,2.83 3.72,1.45 7.06,3.6 4.49,2.89 7.3,7.51 6.66,10.96 5.34,24.4 -0.32,3.25 -1.94,10.02 -3.65,11.14 -8.81,17.23 -6.75,7.97 -20.97,19.52 -1.1,-3.38 -3.43,-6.56 a 1.19,0.64 -4.2 0 0 -0.78,-0.35 q -0.47,-0.04 -0.82,-0.49 -3.62,-4.52 -9.69,-7.31 -0.73,0.07 -0.83,-0.44 a 1.26,0.48 85.8 0 0 -0.37,-0.8 q -2.54,-1.87 -5.59,-0.92 -0.29,0.09 -0.79,0.52 -0.85,0.73 -1.67,-0.57 -2.14,-5.05 -6.19,-10.35 -7.38,-9.68 -15.17,-16.83 -2.31,-2.12 -5.7,-0.67 -6.05,2.58 -7.49,8.25 -0.6,2.39 -2.95,2.85 -10.49,-8.35 -21.93,-0.91 -7.26,4.72 -14.86,8.85 -23.71,12.89 -49.46,4.27 -2.3,-0.77 -3.96,0 l 1.88,-12.81 q 4.04,-0.38 6.83,-2.15 3.77,-2.04 6.21,-5.34 2.42,-3.27 2.82,-7.38 0.89,-9.19 -8.59,-13.01 -3.1,-1.24 -8.1,-0.12 -10.57,-0.53 -21.52,0.78 20.22,-14.03 31.18,-35.76 1.54,0.43 0.95,1.05 -0.58,0.62 -0.64,0.71 -1.68,2.75 -3.62,6.4 -0.56,1.05 0.51,0.54 13.23,-6.22 20.47,-17.81 4.3,-6.87 7,-14.22 2.94,-7.96 2.71,-16.56 -0.19,-6.73 -1.64,-13.1 -1.38,-6.01 -4.43,-12.53 -3.37,-7.21 -8.84,-11.32 -2.92,-2.19 -5.95,-2.79 -3.66,-0.73 -6.77,0.67 -1.97,0.88 -3.18,-0.98 7.72,-5.35 14.68,-7.77 3.65,-1.27 24,-7.5 15.23,-4.66 21.47,-6.13 25.18,-5.94 47.53,2.38 20.88,7.77 38.57,25.4 z"
       id="path698" />
    <path
       fill="#fefefe"
       d="m 752.04,387.25 q -1.61,0.52 -2.5,-1.05 -2.34,-4.15 -7.34,-4.82 -8.73,0.14 -13.54,7.5 -3.69,5.65 -5.16,10.87 -6.86,24.31 5.82,46.35 5.62,9.77 14.12,18.46 4.21,4.31 9.53,5.72 11.18,15.38 26.03,27.43 -6.66,-0.09 -13.3,-0.5 -0.08,0 -6.35,-0.78 -4.08,-0.51 -7.6,0.32 -6.03,1.42 -8.63,7.55 -2.27,5.34 0.57,10.76 3.06,5.86 9.02,7.69 l 2.88,1.73 a 0.91,0.78 -75.7 0 1 0.39,0.78 q -0.2,5.64 0.77,11.2 l -1,0.33 q -0.77,-0.51 -1.68,-0.2 -24.72,8.67 -47.44,-3.78 -8.95,-4.91 -17.67,-10.24 -4.35,-2.65 -9.46,-2.61 -6.31,0.06 -10.04,5.04 -2.62,-1.22 -4.19,-3.47 -2.05,-2.95 -2.68,-3.57 -2.23,-2.21 -4.63,-4.36 -1.58,-1.42 -3.42,-0.38 -6.43,3.61 -11.7,8.84 -4.9,4.87 -8.24,9.77 -3.95,5.83 -5.16,11.86 -2.09,10.44 -2.38,15.62 -0.37,6.75 2.65,14.69 l 3.99,8.96 q -4.99,3.97 -10.92,6.18 -3.85,1.43 -3.89,1.45 -8.05,3.24 -9.95,4.1 -6.35,2.85 -12.74,1.2 l 1.26,-1.39 q 7.67,-14.79 10.25,-31.25 1.24,-3.97 -1.02,-6.69 -2.29,-2.73 -13.29,-13.46 -14.82,-14.46 -15.18,-35.35 -0.23,-13.57 7.53,-24.55 3.13,-4.43 8.31,-7.39 6.4,-3.65 10.19,-5.61 15.55,-8.03 29.76,-18.32 1.45,-0.8 2.38,-2.03 a 1.75,1.37 71.3 0 0 0.32,-0.91 l 0.54,-10.65 q 1.79,-7.37 6.75,-13.05 4.21,-4.82 12,-6.24 4.24,-0.78 6.18,-0.91 a 1.01,0.87 -18.1 0 1 0.84,0.35 q 0.71,0.99 -0.52,1.52 -10.75,-0.56 -17.38,6.2 -3.77,3.85 -5.65,10.13 -1.7,5.65 -1.68,11.71 0.02,5.9 3.27,11.94 5.91,10.97 17.44,14.06 11.13,2.98 20.5,-1.71 15.41,-8.99 12.69,-26.73 -1.46,-9.48 -8.4,-17.31 l -0.47,-0.57 q 3.03,-1.58 3.71,-4.83 0.46,-2.25 0.48,-2.3 3.72,-13.59 2.24,-24.55 -1.29,-9.57 -9.06,-17.44 -6.22,-6.29 -13.81,-7.87 -5.75,-1.21 -15.18,0.84 -13.29,2.89 -26.01,10.16 -13.08,7.47 -19.69,19.85 -3.53,0.18 -6.75,-1.29 -0.78,-0.36 -3,0.21 3.44,-7.65 9.39,-13.57 10.96,-10.92 24.73,-17.97 3.48,-1.78 6.95,-3.56 4.36,-2.24 7.12,-3.25 14.99,-5.45 32.06,-3.11 13.98,1.92 22.13,4.25 25.23,7.21 36.87,11 10.64,3.47 17.04,13 z"
       id="path700" />
    <path
       fill="#260e4b"
       d="m 235.35,358.69 q -11.34,20.58 -15.54,30.12 -14.5,33 -21.56,66.19 -4.94,23.21 -6.41,49.75 -0.61,-9.82 1.35,-23.94 3.76,-27.11 10.61,-50.22 2.89,-9.75 6.17,-19 6.63,-18.71 16.53,-37.84 4.8,-9.29 8.85,-15.06 z"
       id="path702" />
    <path
       fill="#0395bb"
       d="m 485.94,361.25 q 2.25,6.41 3.73,13.16 1.44,6.54 2.88,13.07 1.87,8.43 1.99,13.18 0.26,10.96 -3.62,21.32 -2.5,6.69 -2.51,6.73 -2.58,7.61 -5.07,15.25 a 0.41,0.41 23.5 0 1 -0.59,0.23 q -12.33,-7.01 -23.94,-15.73 5.12,-3.44 8.93,-7.94 8.19,-6.55 11.95,-15.33 1.39,-3.26 2.73,-8.06 1.17,-4.16 1.44,-8.38 0.59,-9.25 -0.44,-18.49 -0.01,-0.08 -0.96,-3.76 -0.57,-2.23 0.39,-4.49 a 1.33,1.08 -84.4 0 1 0.65,-0.66 q 1.01,-0.38 2.44,-0.1 z"
       id="path704" />
    <path
       fill="#22abbd"
       d="m 533.46,361.25 q 0.5,1.14 1.78,0.96 1.49,-0.21 1.3,1.29 -2.46,8 -4.77,16.05 -0.15,0.51 -0.15,1.93 -0.01,1.13 -0.75,1.93 a 1.82,1.12 -29.8 0 0 -0.45,0.83 l -0.38,2.26 -0.08,-6 q 0.59,-7.12 2.5,-14 z"
       id="path706" />
    <path
       fill="#0addd8"
       d="m 546.08,403.02 q 2.39,9.52 10.11,15.54 2.69,2.1 9.56,5.98 l 0.78,1.77 a 0.62,0.57 61.1 0 1 -0.18,0.74 l -19.56,13.7 q -2.19,-3.13 -7.1,-12.44 -10.71,-20.28 -9.65,-41.81 l 0.38,-2.26 a 1.82,1.12 -29.8 0 1 0.45,-0.83 q 0.74,-0.8 0.75,-1.93 0,-1.42 0.15,-1.93 2.31,-8.05 4.77,-16.05 1.29,-0.45 1.67,0.7 a 1.21,1.07 -87.6 0 0 0.56,0.69 q 1.43,0.74 1.89,2.36 0.27,0.95 0.67,1.87 0.43,0.98 0.51,1.86 0.98,10.13 1.97,20.26 0.59,6.02 2.27,11.78 z"
       id="path708" />
    <path
       fill="#fcb173"
       d="m 406.25,387.79 q 9.73,7.69 12.77,19.71 1.68,6.66 2.41,15.77 a 0.82,0.78 -1.9 0 0 0.8,0.71 l 10.41,0.24 a 2.28,2.1 81.2 0 1 1.99,1.59 q 1.27,3.97 3.08,6.65 1.07,1.58 4.79,5.4 5.08,5.21 11.38,8.95 a 0.9,0.7 40.3 0 0 0.88,0.04 q 0.33,-0.22 0.53,-0.6 9.91,6.69 20.46,12.29 -0.41,1.38 -2.35,0.87 a 0.92,0.91 -73.9 0 0 -1.11,0.62 q -5.36,17.72 -10.6,34.41 -5.35,17.01 -6.98,27.56 L 446,521.96 q 1.62,-6.77 1.94,-10.02 1.32,-13.44 -5.34,-24.4 -2.81,-4.62 -7.3,-7.51 -3.34,-2.15 -7.06,-3.6 -7.17,-2.8 -7.22,-2.83 -14.11,-6.42 -27.37,-14.48 -3.02,-1.84 -5.88,-4.6 l 1.5,-4.85 q 14.91,11.96 31.96,20.54 0.07,0.04 2.36,1.31 1.97,1.09 4,1.48 2.4,0.45 1.85,-1.93 -2.11,-9.07 -8.55,-15.71 -7.88,-8.13 -17.95,-13.3 -5.37,-2.75 -12.44,-3.6 -0.61,-6.75 -5.19,-11.77 -1.36,-1.49 -8.05,-4.79 -3.22,-1.58 -6.98,-2.2 -3.64,-0.6 -7.29,-1.16 -2.47,-0.38 -3.05,1.76 -9.04,0.6 -16.87,6.24 -8.56,-16.29 -4.98,-33.61 1.71,-8.26 5.81,-13.4 4.9,-6.14 12.6,-8.53 3.39,-1.05 8.73,-0.32 22.8,3.14 41.02,17.11 z m -42.6527,26.6758 a 7.3,6.73 29.6 0 0 -3.0231,-9.4575 7.3,6.73 29.6 0 0 -9.6715,2.2459 7.3,6.73 29.6 0 0 3.0231,9.4575 7.3,6.73 29.6 0 0 9.6715,-2.2459 z"
       id="path710" />
    <path
       fill="#fcb072"
       d="m 682.82,427.68 q -4.22,-4.71 -10.01,-6.23 -5.07,-1.33 -10.31,-1.49 1.23,-0.53 0.52,-1.52 a 1.01,0.87 -18.1 0 0 -0.84,-0.35 q -1.94,0.13 -6.18,0.91 -7.79,1.42 -12,6.24 -4.96,5.68 -6.75,13.05 -31.19,1.71 -46.47,28.3 -0.04,0.07 -0.73,1.17 -1.09,1.77 -1.22,3.67 -0.16,2.44 2.1,1.51 11.91,-4.9 22.38,-12.38 3.56,-2.54 17.44,-8.81 0.93,-0.42 3.26,0.13 -14.21,10.29 -29.76,18.32 -3.79,1.96 -10.19,5.61 -5.18,2.96 -8.31,7.39 -7.76,10.98 -7.53,24.55 0.36,20.89 15.18,35.35 11,10.73 13.29,13.46 2.26,2.72 1.02,6.69 -7.35,4.69 -15.59,7.35 -2.31,0.75 -4.32,0.39 -2.18,-0.38 -4.25,-1.28 -13.78,-5.99 -21.21,-19.04 -5.1,-8.96 -10.15,-21.61 -0.79,-1.96 -0.95,-3.68 -0.28,-2.85 -0.52,-3.68 -2.33,-7.83 -4.79,-15.62 -0.03,-0.12 -0.27,-1.18 -0.32,-1.44 -1.48,-0.9 a 0.84,0.7 78.5 0 0 -0.41,0.76 q 0.17,4.53 0.7,9.05 0.21,1.83 -1.68,1.44 -2.45,-23.71 -1.32,-47.53 0.1,-2.22 1.26,-3.41 1.34,-1.39 3.27,-2.1 0.92,1.44 2.19,0.48 1.75,-1.33 10.95,-6.74 0.06,-0.04 3.28,-1.78 4.03,-2.18 8.52,-6.23 6.89,-6.23 10.07,-9.75 0.11,-0.13 1.19,-1.14 1.84,-1.74 0.76,-4.3 l 4.32,-6.87 q 2.68,-2.03 5.97,-2.14 4.01,-0.14 8.01,0.26 a 1.13,1.13 2.8 0 0 1.24,-1.12 q -0.02,-10.58 3,-21.34 6.61,-12.38 19.69,-19.85 12.72,-7.27 26.01,-10.16 9.43,-2.05 15.18,-0.84 7.59,1.58 13.81,7.87 7.77,7.87 9.06,17.44 1.48,10.96 -2.24,24.55 -0.02,0.05 -0.48,2.3 -0.68,3.25 -3.71,4.83 z m -6.1811,-16.0336 a 7.05,6.43 8.7 0 0 -5.9963,-7.4224 7.05,6.43 8.7 0 0 -7.9415,5.2896 7.05,6.43 8.7 0 0 5.9963,7.4224 7.05,6.43 8.7 0 0 7.9415,-5.2896 z"
       id="path712" />
    <path
       fill="#0c84b4"
       d="m 529.96,380.5 0.08,6 q -1.06,21.53 9.65,41.81 4.91,9.31 7.1,12.44 -0.76,1.81 -2.19,3.17 a 0.28,0.25 -56.2 0 0 0.06,0.45 l 0.38,0.13 -2.1,1.88 a 0.37,0.35 58.3 0 1 -0.57,-0.15 q -2.73,-6.41 -5.85,-12.63 -4.64,-9.26 -5.69,-12.65 -2.62,-8.48 -2.58,-18.2 0.05,-12.82 1.71,-22.25 z"
       id="path714" />
    <path
       fill="#f8a76d"
       d="m 742.2,381.38 q -2.86,0.98 -1.43,2.54 0.72,0.79 0.76,0.84 4.88,6.37 7.43,14 2.3,6.92 3.85,13.23 0.31,1.26 0.86,2.45 2.09,4.54 1.21,8.33 a 1.75,1.1 -59.6 0 0 0.03,0.95 l 1.55,3.78 q -1.06,3.51 -2.37,6.24 -1.01,2.09 -0.84,-0.22 0.5,-6.83 -3.56,-12.21 -1.37,-1.81 -2.89,-2.66 -1.5,-0.82 -3.72,-0.5 -3.32,0.47 -5.95,2.51 -1.53,1.17 -1.74,2.85 -0.21,1.67 0.3,3.55 6.2,23.03 17.28,43.22 -5.32,-1.41 -9.53,-5.72 -8.5,-8.69 -14.12,-18.46 -12.68,-22.04 -5.82,-46.35 1.47,-5.22 5.16,-10.87 4.81,-7.36 13.54,-7.5 z"
       id="path716" />
    <path
       fill="#fba46a"
       d="m 271.82,381.52 q 1.21,1.86 3.18,0.98 3.11,-1.4 6.77,-0.67 3.03,0.6 5.95,2.79 5.47,4.11 8.84,11.32 3.05,6.52 4.43,12.53 1.45,6.37 1.64,13.1 0.23,8.6 -2.71,16.56 -2.7,7.35 -7,14.22 -7.24,11.59 -20.47,17.81 -1.07,0.51 -0.51,-0.54 1.94,-3.65 3.62,-6.4 0.06,-0.09 0.64,-0.71 0.59,-0.62 -0.95,-1.05 4.86,-10.69 9.26,-21.56 2.73,-6.74 3.99,-14.65 0.61,-3.81 -2.34,-5.64 -4.61,-2.87 -8.4,-0.93 -2.75,1.42 -4.76,5.73 -2.5,5.34 -3.05,11.72 -0.19,2.05 -0.63,0.04 -0.77,-3.48 -1.98,-6.52 -2.44,-6.13 -2.5,-6.31 -6.95,-22.5 6.98,-41.82 z"
       id="path718" />
    <path
       fill="#dd8b5a"
       d="m 742.2,381.38 q 5,0.67 7.34,4.82 0.89,1.57 2.5,1.05 10.77,19.04 4.42,40.25 l -1.55,-3.78 a 1.75,1.1 -59.6 0 1 -0.03,-0.95 q 0.88,-3.79 -1.21,-8.33 -0.55,-1.19 -0.86,-2.45 -1.55,-6.31 -3.85,-13.23 -2.55,-7.63 -7.43,-14 -0.04,-0.05 -0.76,-0.84 -1.43,-1.56 1.43,-2.54 z"
       id="path720" />
    <path
       fill="#fdb577"
       d="m 588.54,383 q -5.55,6.61 -7.73,12.81 -1.35,3.85 -5.35,19.19 -1.67,0.25 -1.21,-1.25 3.87,-12.6 4.75,-16 2.24,-8.69 8.4,-15.14 a 1.03,0.57 -52.6 0 1 0.85,-0.37 q 0.39,0.12 0.29,0.76 z"
       id="path722" />
    <path
       fill="#0c0029"
       d="m 821.68,384.74 q 7.5,16.57 12.07,32.01 2.96,10.01 6.14,22.78 2.75,11.02 4.08,19.57 2.69,17.21 3.19,34.69 -1.28,-8.63 -2.04,-17.32 -0.75,-8.66 -1.79,-14.98 -1.22,-7.46 -2.39,-14.93 -0.89,-5.62 -9.06,-33.1 -1.5,-5.05 -3.87,-10.69 -2.2,-5.25 -4.26,-10.56 -1.8,-3.55 -2.07,-7.47 z"
       id="path724" />
    <path
       fill="#fee2bf"
       d="m 418.07,387.9 q 8.17,8.34 11.44,19.6 1.82,6.25 4.07,12.35 4.12,11.16 12.89,19.17 4.22,3.85 8.82,7.23 -0.2,0.38 -0.53,0.6 a 0.9,0.7 40.3 0 1 -0.88,-0.04 q -6.3,-3.74 -11.38,-8.95 -3.72,-3.82 -4.79,-5.4 -1.81,-2.68 -3.08,-6.65 a 2.28,2.1 81.2 0 0 -1.99,-1.59 l -10.41,-0.24 a 0.82,0.78 -1.9 0 1 -0.8,-0.71 q -0.73,-9.11 -2.41,-15.77 -3.04,-12.02 -12.77,-19.71 1.3,-1.33 2.5,-1.04 5.52,1.35 9.32,1.15 z"
       id="path726" />
    <path
       fill="#453774"
       d="m 823.75,392.21 q 2.06,5.31 4.26,10.56 2.37,5.64 3.87,10.69 8.17,27.48 9.06,33.1 1.17,7.47 2.39,14.93 1.04,6.32 1.79,14.98 0.76,8.69 2.04,17.32 1.06,3.67 0.42,7.45 -0.15,10.72 -1.33,34.26 -0.64,12.75 -2.04,21.25 -1.68,-2.03 -2.71,-6.5 -3.55,-15.4 -1.71,-28.85 0.24,-1.7 -0.2,-2.74 -0.57,-1.38 -1.7,-2.34 -1.27,-1.07 -2.34,-2.11 -1.17,-1.14 -2.82,-1.65 -2.25,-0.69 -2.87,-2.83 a 1.64,1.52 -79.1 0 0 -0.49,-0.79 q -1.63,-1.48 -1.84,-3.68 A 0.59,0.42 82.2 0 0 827,504.7 q -0.27,0.07 -0.5,0.34 -2.01,-55.22 -23,-106.25 0.74,-0.53 1.18,-0.03 a 0.35,0.33 43.2 0 0 0.52,0 q 0.23,-0.3 0.54,-0.51 0.27,-0.18 0.7,-0.2 7.26,-0.31 14.27,-2.23 a 1.73,1.22 -70.2 0 0 0.76,-0.53 q 0.69,-0.85 1.73,-1.05 a 0.32,0.3 70.4 0 0 0.2,-0.46 q -0.48,-0.86 0.35,-1.57 z"
       id="path728" />
    <path
       fill="#bbfdfb"
       d="m 528.29,459.25 q 0.02,-1.05 -1.04,-0.79 l 2.06,-3.19 q 1.34,-2.06 -0.53,-3.59 -3.19,-2.6 -4.59,-5.52 -0.21,-0.43 -1.95,-6.72 -2.39,-8.58 -2.55,-10.63 -0.21,-2.57 -1.41,-4.76 a 0.61,0.61 59.8 0 0 -0.85,-0.23 q -5.17,3.22 -6.61,8.38 -0.12,0.4 -0.5,0.82 -0.55,0.61 -1.13,1.92 -6.94,15.46 -10.32,28.58 a 1.85,1.28 -22.9 0 1 -0.51,0.8 q -1.44,1.32 -0.4,3.01 0.29,0.47 0.36,0.92 0.76,4.63 5.49,7.44 4.69,2.78 8.66,1.92 -0.65,20.94 0.49,42.14 l -1.03,4.05 a 0.96,0.86 -73 0 1 -1.17,0.71 q -2.73,-1.03 -5.17,0.12 -3.09,1.44 -5.65,-0.82 -2.24,-1.98 -8.4,-3.5 a 0.91,0.83 0.7 0 1 -0.64,-0.6 q -0.32,-1.1 -0.04,-2.23 a 0.63,0.55 -72.8 0 0 -0.31,-0.7 l -2.77,-1.17 a 0.77,0.73 -80.5 0 1 -0.45,-0.67 q -0.06,-1.47 -1.8,-0.92 a 0.69,0.68 63.1 0 1 -0.75,-0.25 q -0.88,-1.17 -2.24,-1.77 2.26,-17.87 7.71,-37.75 4.31,-15.71 7.23,-24.49 5.21,-21.35 13.46,-41.66 0.6,-3.99 0.56,-5.35 -0.2,-7.16 0.25,-8.5 0.44,-1.32 0.88,-0.31 0.12,0.26 0.14,0.65 0.36,5.37 1.37,10.62 0.73,3.8 3.09,10.22 4.12,11.21 6.77,22.87 1.95,8.59 7.91,15.09 a 0.61,0.56 -49 0 1 0.02,0.75 z"
       id="path730" />
    <path
       fill="#fdead0"
       d="m 605.5,401.54 q -3.02,10.76 -3,21.34 a 1.13,1.13 2.8 0 1 -1.24,1.12 q -4,-0.4 -8.01,-0.26 -3.29,0.11 -5.97,2.14 2.43,-6.03 4.28,-13.82 1.28,-5.41 4.19,-11.6 2.22,-0.57 3,-0.21 3.22,1.47 6.75,1.29 z"
       id="path732" />
    <ellipse
       fill="#150134"
       cx="0"
       cy="0"
       transform="rotate(29.6,-598.89634,881.49849)"
       rx="7.3000002"
       ry="6.73"
       id="ellipse734" />
    <ellipse
       fill="#0c0029"
       cx="0"
       cy="0"
       transform="rotate(8.7,-2363.9333,4607.0733)"
       rx="7.0500002"
       ry="6.4299998"
       id="ellipse736" />
    <path
       fill="#0a0216"
       d="m 510.94,408.1 q -8.25,20.31 -13.46,41.66 -2.75,-5.37 -0.02,-10.24 1.36,-2.44 1.73,-3.98 2.09,-8.8 4.86,-17.41 0.53,-1.63 2.24,-4.26 1.44,-2.21 1.96,-4.62 0.38,-1.76 2.69,-1.15 z"
       id="path738" />
    <path
       fill="#ecbe97"
       d="m 390.5,438.46 q -0.7,-0.31 -1.46,-0.21 -3.35,-12.14 -15.31,-16.2 -6.63,-2.25 -13.79,-1.75 0.58,-2.14 3.05,-1.76 3.65,0.56 7.29,1.16 3.76,0.62 6.98,2.2 6.69,3.3 8.05,4.79 4.58,5.02 5.19,11.77 z"
       id="path740" />
    <path
       fill="#260e4b"
       d="m 662.5,419.96 q 5.24,0.16 10.31,1.49 5.79,1.52 10.01,6.23 l 0.47,0.57 -0.75,1.59 a 0.95,0.67 -53.3 0 0 -0.02,0.83 q 2.47,3.85 3.29,5.02 8.98,12.74 1.64,26.53 -2.98,5.6 -8.56,8.49 a 1.43,0.9 -13.3 0 0 -0.66,0.67 q -0.29,0.87 0.77,0.91 -9.37,4.69 -20.5,1.71 -11.53,-3.09 -17.44,-14.06 -3.25,-6.04 -3.27,-11.94 -0.02,-6.06 1.68,-11.71 1.88,-6.28 5.65,-10.13 6.63,-6.76 17.38,-6.2 z m 10.5349,29.6387 a 10.52,9.33 37.6 0 0 -2.6422,-13.8108 10.52,9.33 37.6 0 0 -14.0276,0.9734 10.52,9.33 37.6 0 0 2.6422,13.8108 10.52,9.33 37.6 0 0 14.0276,-0.9734 z"
       id="path742" />
    <path
       fill="#230c4c"
       d="m 359.94,420.3 q 7.16,-0.5 13.79,1.75 11.96,4.06 15.31,16.2 0.77,3.84 -0.09,7.39 -2.46,8.69 -5.51,14.3 -7.89,14.49 -25.2,13.25 -1.68,-0.12 -3.37,-0.22 -0.1,-0.01 -1.09,-0.2 -1.08,-0.22 -1.53,0.94 -16.57,-4.59 -18.25,-21.46 -1.49,-14.95 9.07,-25.71 7.83,-5.64 16.87,-6.24 z m 12.9949,20.8871 a 10.21,9.76 -10 0 0 -11.7497,-7.8388 10.21,9.76 -10 0 0 -8.3601,11.3846 10.21,9.76 -10 0 0 11.7497,7.8388 10.21,9.76 -10 0 0 8.3601,-11.3846 z"
       id="path744" />
    <path
       fill="#2c2d65"
       d="m 467.74,420.52 q -3.81,4.5 -8.93,7.94 l -1.31,-1.42 q 5.58,-2.45 10.24,-6.52 z"
       id="path746" />
    <path
       fill="#67fafb"
       d="m 527.25,458.46 q -0.56,0.81 -1.17,0.21 -0.67,-0.67 -1.07,-1.5 -0.51,-1.07 -0.97,-1.5 -5.31,-4.99 -8.71,2.08 -1.22,2.54 -1.83,7.5 -1.03,8.42 -1.03,12.36 -3.97,0.86 -8.66,-1.92 -4.73,-2.81 -5.49,-7.44 -0.07,-0.45 -0.36,-0.92 -1.04,-1.69 0.4,-3.01 a 1.85,1.28 -22.9 0 0 0.51,-0.8 q 3.38,-13.12 10.32,-28.58 0.58,-1.31 1.13,-1.92 0.38,-0.42 0.5,-0.82 1.44,-5.16 6.61,-8.38 a 0.61,0.61 59.8 0 1 0.85,0.23 q 1.2,2.19 1.41,4.76 0.16,2.05 2.55,10.63 1.74,6.29 1.95,6.72 1.4,2.92 4.59,5.52 1.87,1.53 0.53,3.59 z"
       id="path748" />
    <path
       fill="#35cdee"
       d="m 565.75,424.54 3.25,1.55 q -11.29,10.07 -23.96,18.41 l -0.38,-0.13 a 0.28,0.25 -56.2 0 1 -0.06,-0.45 q 1.43,-1.36 2.19,-3.17 l 19.56,-13.7 a 0.62,0.57 61.1 0 0 0.18,-0.74 z"
       id="path750" />
    <path
       fill="#04000b"
       d="m 683.29,428.25 q 6.94,7.83 8.4,17.31 2.72,17.74 -12.69,26.73 -1.06,-0.04 -0.77,-0.91 a 1.43,0.9 -13.3 0 1 0.66,-0.67 q 5.58,-2.89 8.56,-8.49 7.34,-13.79 -1.64,-26.53 -0.82,-1.17 -3.29,-5.02 a 0.95,0.67 -53.3 0 1 0.02,-0.83 z"
       id="path752" />
    <path
       fill="#ecbe97"
       d="m 582.96,432.75 q 1.08,2.56 -0.76,4.3 -1.08,1.01 -1.19,1.14 -3.18,3.52 -10.07,9.75 -4.49,4.05 -8.52,6.23 -3.22,1.74 -3.28,1.78 -9.2,5.41 -10.95,6.74 -1.27,0.96 -2.19,-0.48 10.53,-6.35 20.65,-13.32 9.6,-6.62 16.31,-16.14 z"
       id="path754" />
    <ellipse
       fill="#ffffff"
       cx="0"
       cy="0"
       transform="rotate(-10,2712.968,-1852.3887)"
       rx="10.21"
       ry="9.7600002"
       id="ellipse756" />
    <ellipse
       fill="#ffffff"
       cx="0"
       cy="0"
       transform="rotate(37.6,-318.56635,1197.8617)"
       rx="10.52"
       ry="9.3299999"
       id="ellipse758" />
    <path
       fill="#e78147"
       d="m 389.04,438.25 q 0.76,-0.1 1.46,0.21 7.07,0.85 12.44,3.6 10.07,5.17 17.95,13.3 6.44,6.64 8.55,15.71 0.55,2.38 -1.85,1.93 -2.03,-0.39 -4,-1.48 -2.29,-1.27 -2.36,-1.31 -17.05,-8.58 -31.96,-20.54 l -0.32,-4.03 q 0.86,-3.55 0.09,-7.39 z"
       id="path760" />
    <path
       fill="#e6814d"
       d="m 637.25,438.29 -0.54,10.65 a 1.75,1.37 71.3 0 1 -0.32,0.91 q -0.93,1.23 -2.38,2.03 -2.33,-0.55 -3.26,-0.13 -13.88,6.27 -17.44,8.81 -10.47,7.48 -22.38,12.38 -2.26,0.93 -2.1,-1.51 0.13,-1.9 1.22,-3.67 0.69,-1.1 0.73,-1.17 15.28,-26.59 46.47,-28.3 z"
       id="path762" />
    <path
       fill="#0a0216"
       d="m 388.95,445.64 0.32,4.03 -1.5,4.85 q -9.32,24.44 -35.52,19.19 0.45,-1.16 1.53,-0.94 0.99,0.19 1.09,0.2 1.69,0.1 3.37,0.22 17.31,1.24 25.2,-13.25 3.05,-5.61 5.51,-14.3 z"
       id="path764" />
    <path
       fill="#ffffff"
       d="m 527.25,458.46 q 1.06,-0.26 1.04,0.79 -1.94,4.5 -2.04,8.5 -0.44,17.18 1.07,37.99 1.43,19.53 8.14,37.9 8.24,22.56 25.35,40.05 12.22,12.48 22.3,21.79 12.25,11.8 16.45,15.21 20.01,16.19 43.69,26.27 15.43,6.21 31.55,7.3 -2.42,7.54 -7.94,13.13 a 1.14,1.13 24.1 0 1 -0.87,0.33 q -13.89,-0.93 -27.32,-4.3 -9.33,-2.33 -18.77,-6.71 -15.98,-7.4 -32.71,-18.4 -38.09,-25.03 -58.89,-63.68 -4.93,-9.17 -8.02,-18.28 -6.03,-17.73 -7.32,-36.6 -1.14,-21.2 -0.49,-42.14 0,-3.94 1.03,-12.36 0.61,-4.96 1.83,-7.5 3.4,-7.07 8.71,-2.08 0.46,0.43 0.97,1.5 0.4,0.83 1.07,1.5 0.61,0.6 1.17,-0.21 z"
       id="path766" />
    <path
       fill="#d17f5b"
       d="m 475.75,458.54 4.05,1.97 a 0.54,0.54 -64.7 0 1 0.25,0.7 l -1.8,4.08 q -1.25,-0.44 -1.5,0.46 -4.71,17.12 -7.73,38.47 l -4.73,32.53 q 0.16,-2.09 -0.81,-0.68 a 3.7,3.63 64.5 0 0 -0.64,1.87 q -0.64,12.33 -7.21,20.4 -3.48,4.27 -7.16,8.38 -11.22,12.53 -22.28,25.22 -1.25,1.43 -1.88,-0.75 -2.56,-8.92 -2.81,-18.21 a 3.24,3.23 -27.5 0 1 0.64,-2.02 q 3.42,-4.61 8.44,-7.7 3.17,-1.94 6.27,-3.99 3.71,-2.46 5.82,-4.61 7.27,-7.4 9.3,-17.68 1.34,-6.79 1.37,-6.91 0.89,-3.99 1.37,-8.07 1.63,-10.55 6.98,-27.56 5.24,-16.69 10.6,-34.41 a 0.92,0.91 -73.9 0 1 1.11,-0.62 q 1.94,0.51 2.35,-0.87 z"
       id="path768" />
    <path
       fill="#e19675"
       d="m 478.25,465.29 -9.23,38.93 q 3.02,-21.35 7.73,-38.47 0.25,-0.9 1.5,-0.46 z"
       id="path770" />
    <path
       fill="#5e5b92"
       d="m 265.59,496.44 q 14.16,-0.38 15.34,11.38 0.39,3.87 -1.45,7.02 -2,3.44 -5.29,5.35 -1.5,0.86 -0.94,2.1 -2.79,1.77 -6.83,2.15 4.77,-3 2.39,-7.75 -1.83,-3.67 -6.53,-6.19 -8.96,-4.8 -16.28,-8 -2.66,-1.16 -4.53,-2.4 a 0.41,0.39 42.1 0 1 -0.05,-0.64 l 2.65,-2.24 q 10.95,-1.31 21.52,-0.78 z"
       id="path772" />
    <path
       fill="#2c2d65"
       d="m 265.59,496.44 q 5,-1.12 8.1,0.12 9.48,3.82 8.59,13.01 -0.4,4.11 -2.82,7.38 -2.44,3.3 -6.21,5.34 -0.56,-1.24 0.94,-2.1 3.29,-1.91 5.29,-5.35 1.84,-3.15 1.45,-7.02 -1.18,-11.76 -15.34,-11.38 z"
       id="path774" />
    <path
       fill="#655e93"
       d="m 779,497.71 3.65,2.69 a 0.4,0.36 -41.8 0 1 -0.07,0.62 q -5.63,3.57 -12.02,5.54 -2.16,0.67 -11.25,5.25 -6.26,3.16 -6.6,10.94 -5.96,-1.83 -9.02,-7.69 -2.84,-5.42 -0.57,-10.76 2.6,-6.13 8.63,-7.55 3.52,-0.83 7.6,-0.32 6.27,0.78 6.35,0.78 6.64,0.41 13.3,0.5 z"
       id="path776" />
    <path
       fill="#04000b"
       d="m 847.58,501.24 q 2.34,46.61 -10.83,94.01 -8.48,30.52 -19.19,54.31 -15.79,35.08 -41.6,69.94 -0.88,-0.78 -0.2,-1.48 0.7,-0.71 0.75,-0.78 23.19,-32.11 40.13,-67.85 4.31,-9.1 7.76,-18.41 13.4,-36.13 19.81,-74.23 1.4,-8.5 2.04,-21.25 1.18,-23.54 1.33,-34.26 z"
       id="path778" />
    <path
       fill="#e98250"
       d="m 607.71,563.25 q -2.58,16.46 -10.25,31.25 -3.12,0.38 -5.02,-0.94 -1.63,-1.12 -3.26,-2.25 -1.68,-1.16 -3.11,-2.42 -16.67,-14.66 -26.76,-29.2 -13.13,-18.94 -16.52,-44.44 1.89,0.39 1.68,-1.44 -0.53,-4.52 -0.7,-9.05 a 0.84,0.7 78.5 0 1 0.41,-0.76 q 1.16,-0.54 1.48,0.9 0.24,1.06 0.27,1.18 2.46,7.79 4.79,15.62 0.24,0.83 0.52,3.68 0.16,1.72 0.95,3.68 5.05,12.65 10.15,21.61 7.43,13.05 21.21,19.04 2.07,0.9 4.25,1.28 2.01,0.36 4.32,-0.39 8.24,-2.66 15.59,-7.35 z"
       id="path780" />
    <path
       fill="#361e66"
       d="m 844.21,556.75 q -6.41,38.1 -19.81,74.23 -3.45,9.31 -7.76,18.41 -16.94,35.74 -40.13,67.85 -0.05,0.07 -0.75,0.78 -0.68,0.7 0.2,1.48 -14.27,19.37 -31.17,36.5 -1.68,0.08 -3.85,2.19 -74.14,71.77 -177.68,90.59 -18.78,3.42 -37.84,4.18 -0.1,0.01 -1.83,-0.13 -1.81,-0.13 -2.09,1.63 -7.23,0.75 -20,0.29 -36.41,-1.32 -68,-8.79 -0.29,-0.73 0,-1.26 a 1.28,0.64 -3.6 0 1 0.81,-0.47 q 1.9,-0.43 0.91,-1.81 -0.39,-0.54 -1.28,-0.95 -12.86,-5.91 -25.8,-11.66 -3.13,-1.39 -8.17,-2.7 -8.71,-2.27 -15.22,-6.61 -2.31,-1.54 -4.11,-2.38 -3.18,-1.48 -4.16,-2.12 -5.08,-3.31 -8.23,-4.5 -2.56,-0.96 -4.2,-1.85 -2.77,-1.5 -2.82,-1.53 -7.24,-3.46 -13.17,-7.18 -7.23,-4.54 -12.88,-7.69 -0.08,-0.05 -2.4,-1.52 -1.43,-0.91 -3.07,-1.39 -1.66,-0.49 -2.69,-1.21 -1.23,-0.87 -2.48,-1.71 -0.77,-0.52 -2.67,-2.3 -1.23,-1.16 -2.93,-2.06 -1.95,-1.02 -4.86,-3.14 -0.47,-0.33 -0.14,-0.44 0.21,-0.07 0.04,-0.18 -3.41,-2.26 -9.17,-6.86 -4.2,-3.36 -10.01,-6.49 -3.19,-1.72 -6.21,-4.01 -2.97,-2.25 -6.13,-4.22 -1.87,-1.16 -3.94,-3.02 -1.87,-1.68 -3.96,-3.07 -1.34,-0.89 -3.11,-2.83 -1.48,-1.61 -3.49,-2.59 a 1.47,1.24 86.4 0 1 -0.64,-0.67 q -0.8,-1.68 -2.82,-1.04 -0.85,0.27 -2.5,-0.46 -13.79,-14.48 -27.19,-34.1 -18.11,-26.53 -34.37,-61.38 -12.77,-27.35 -20.38,-59.87 -6.81,-29.14 -8.56,-54.9 3.99,-3.44 8,-3.54 5.49,-0.13 8.02,-0.6 0.91,-0.16 1.43,0.1 0.68,0.34 1.12,1 a 0.49,0.4 52.8 0 0 0.67,0.16 q 0.49,-0.46 0.47,-1.41 0.9,7.11 1.6,14.24 3.13,31.62 12.97,61.83 4.31,13.23 11.91,30.99 12.32,28.83 28.04,52.92 0.03,0.05 5.59,8.03 3.1,4.44 5.74,9.18 1.32,2.37 6.14,7.51 2.99,3.19 6.31,7.33 3.83,4.77 8.15,9.12 6.61,6.65 6.67,6.71 11.15,11.63 17.11,16.7 5.78,4.93 8.12,8.13 1.61,2.2 3.69,1.02 13.14,10.94 33.44,23.6 27.39,17.1 53.12,26.88 27.6,10.49 61.32,16.44 10.58,1.86 19.8,2.75 41.64,3.99 82.82,-4.34 0.24,1 1.75,0.71 21.62,-4.23 39.32,-9.53 5.01,-1.5 11.93,-4.47 1.36,-0.58 0.5,-1.29 30.05,-11.11 57,-28.42 0.21,1.4 1.44,0.65 15.78,-9.61 30.6,-23.04 0.87,-0.79 4.75,-3.91 2.23,-1.79 4.52,-4.18 0.8,-0.82 0.19,-1.6 22.36,-20.01 36.69,-38.02 35.52,-44.66 55.62,-98.88 7.84,-21.14 11.98,-42.46 1.82,-9.41 3.39,-19.71 3.73,-24.49 3.07,-49.35 0.23,-0.27 0.5,-0.34 a 0.59,0.42 82.2 0 1 0.53,0.56 q 0.21,2.2 1.84,3.68 a 1.64,1.52 -79.1 0 1 0.49,0.79 q 0.62,2.14 2.87,2.83 1.65,0.51 2.82,1.65 1.07,1.04 2.34,2.11 1.13,0.96 1.7,2.34 0.44,1.04 0.2,2.74 -1.84,13.45 1.71,28.85 1.03,4.47 2.71,6.5 z"
       id="path782" />
    <path
       fill="#d7fefa"
       d="m 482.54,512 q 1.36,0.6 2.24,1.77 a 0.69,0.68 63.1 0 0 0.75,0.25 q 1.74,-0.55 1.8,0.92 a 0.77,0.73 -80.5 0 0 0.45,0.67 l 2.77,1.17 a 0.63,0.55 -72.8 0 1 0.31,0.7 q -0.28,1.13 0.04,2.23 a 0.91,0.83 0.7 0 0 0.64,0.6 q 6.16,1.52 8.4,3.5 2.56,2.26 5.65,0.82 2.44,-1.15 5.17,-0.12 a 0.96,0.86 -73 0 0 1.17,-0.71 l 1.03,-4.05 q 1.29,18.87 7.32,36.6 3.09,9.11 8.02,18.28 20.8,38.65 58.89,63.68 16.73,11 32.71,18.4 9.44,4.38 18.77,6.71 13.43,3.37 27.32,4.3 a 1.14,1.13 24.1 0 0 0.87,-0.33 q 5.52,-5.59 7.94,-13.13 10.42,1.43 20.45,0.77 a 0.87,0.77 -15.2 0 1 0.77,0.38 q 0.73,1.27 0.57,2.6 -0.3,2.43 -0.3,2.52 0.02,2.12 -0.25,4.22 -5.96,14.86 -12.97,29.26 -0.35,0.71 -6.05,13.32 -3.03,6.69 -6.94,12.93 a 1.51,0.59 76.6 0 0 -0.13,0.91 l 0.09,1.33 q -7.64,6.38 -15.3,12.73 -0.07,0.07 -4.19,3.3 -3.28,2.57 -6.09,5.64 -0.77,0.83 -0.65,-0.34 l 0.41,-4.17 q 4.6,-1.12 7.22,-4.55 1.74,-2.28 1.62,-5.66 -0.3,-8.36 -5.87,-15.14 -4.78,-5.82 -10.56,-10.14 -3.43,-2.58 -12.26,-7.79 -6.21,-3.67 -14.31,-7.94 -9.97,-5.27 -30.21,-17.3 -19.97,-11.88 -38.22,-26.25 -14.84,-11.68 -28.69,-29.83 -9.3,-12.17 -13.65,-22.81 -1.2,-3.66 -3.72,-6.56 -0.51,-0.58 -1.08,-0.38 a 0.81,0.6 81.9 0 0 -0.4,0.75 q 0.07,2.3 -1.1,4.1 -1.44,2.22 -1.78,3.14 -0.76,2.04 -1.71,3.99 -5.2,-10.18 -7.5,-23.04 -2.62,-14.67 -2.42,-27 0.28,-17.73 2.96,-35.25 z"
       id="path784" />
    <path
       fill="#4d4069"
       d="m 254.79,528.5 q -0.32,-0.68 -1,-0.58 a 1.26,0.8 -70.1 0 0 -0.74,0.57 q -3.7,5.98 -9.95,9.68 -10.73,-4 -15.19,-15.35 -1.93,-4.89 -0.82,-9.17 a 1.56,1.56 -82.5 0 1 1.51,-1.16 q 14.11,0.06 24.21,6.7 5.74,3.77 1.98,9.31 z"
       id="path786" />
    <path
       fill="#d5fef9"
       d="m 669.46,525 q -3.04,3.05 -4.68,6.86 -1.57,3.62 -1.2,7.99 0.68,7.97 5.5,14.62 -1.42,2.64 -3.98,3.62 -3.31,1.28 -3.44,1.35 -11.33,6.01 -20.1,9.87 -0.73,0.32 -0.92,-0.37 a 0.62,0.49 76.7 0 0 -0.58,-0.46 q -1.82,0.31 -3.61,2.76 a 1.88,1.87 18.1 0 1 -1.51,0.76 q -3.96,0 -5.23,2 -3.02,-7.94 -2.65,-14.69 0.29,-5.18 2.38,-15.62 1.21,-6.03 5.16,-11.86 3.34,-4.9 8.24,-9.77 5.27,-5.23 11.7,-8.84 1.84,-1.04 3.42,0.38 2.4,2.15 4.63,4.36 0.63,0.62 2.68,3.57 1.57,2.25 4.19,3.47 z"
       id="path788" />
    <path
       fill="#4d4069"
       d="m 796.29,522.75 q -0.46,-0.33 -0.99,-0.3 a 1.11,0.77 -71.3 0 0 -0.74,0.55 q -3.11,5.46 -5.5,8.06 -5.47,5.95 -14.3,6.14 -3.08,-1.73 -6.01,-5.2 -5.16,-6.1 -1.35,-10.68 2.15,-2.59 7.75,-4.66 9.04,-3.34 20.22,-3.73 1.97,-0.07 2.45,1.84 0.89,3.59 -1.53,7.98 z"
       id="path790" />
    <path
       fill="#d5fef9"
       d="m 392.25,541.79 q 3.57,10.11 3.75,17.96 0.17,7.75 -4,16.29 -1.3,0.08 -2.21,-0.63 -1.28,-0.98 -1.34,-1.02 -2.03,-1.08 -4.95,-1.89 -9.6,-2.68 -16.88,-4.12 -0.08,-0.01 -3.4,-0.42 -2.07,-0.26 -3.78,-1.15 -3.61,-1.88 -6.88,-2.75 A 0.74,0.58 9.9 0 1 352,563.44 l 0.07,-1.31 q 7.82,-9.46 8.43,-22.13 0.43,-9.03 -5.75,-14.96 2.35,-0.46 2.95,-2.85 1.44,-5.67 7.49,-8.25 3.39,-1.45 5.7,0.67 7.79,7.15 15.17,16.83 4.05,5.3 6.19,10.35 z"
       id="path792" />
    <path
       fill="#6af4fb"
       d="m 755.75,536.79 q 1.25,6.58 5.78,10.55 1.24,1.08 -0.32,1.59 -21,6.87 -42.02,0.13 -4.06,-1.3 -16.19,-8.13 -0.38,-0.21 -0.7,-0.66 -0.64,-0.89 -1.61,-1.26 -2.09,-0.8 -2.23,-0.89 -5.45,-3.36 -10.3,-7.52 -1.63,-1.39 -3.15,-2.28 -1.69,-0.98 -3.4,-1.92 -1.61,-0.89 -2.76,-0.94 -1.68,-0.08 -2.93,0.85 -1.48,1.11 -1.84,3.49 -0.34,2.19 0.21,4.44 3.56,14.54 16.53,21.94 5.44,3.1 10.92,6.12 3.92,2.16 8.4,3.46 4.91,1.43 9.34,2.76 2.77,0.84 2.77,4.21 v 8.73 q -1.35,0.59 -2.38,1.66 -1.63,1.68 0.24,1.7 l 2.47,21.33 q -1.29,5.99 -0.83,13.1 0.36,5.65 -0.8,11.7 -1.45,7.56 -1.49,7.79 -3.33,19.67 -12.21,37.36 -4.98,9.91 -9.95,17.02 -5.44,7.78 -12.86,15.07 -1.34,1.31 0.35,2.06 -6.97,6.61 -14.75,12.25 l -0.09,-1.33 a 1.51,0.59 76.6 0 1 0.13,-0.91 q 3.91,-6.24 6.94,-12.93 5.7,-12.61 6.05,-13.32 7.01,-14.4 12.97,-29.26 1.31,-1.72 1.89,-3.73 0.67,-2.31 1.49,-3.62 1.47,-2.32 2.6,-4.81 1.08,-2.38 2.74,-4.67 2.5,-3.43 3.43,-6.73 0.47,-1.69 1.39,-2.42 a 1.61,1.05 -21.7 0 0 0.54,-0.77 q 2.41,-10.34 1.62,-21.87 -0.64,-5.41 -1.87,-11.24 -1.15,-5.46 -1.14,-7.87 0,-4.02 1.15,-7.94 0.73,-2.5 1.25,-5.95 a 1.14,1.14 13.4 0 0 -0.78,-1.26 q -17.48,-5.6 -31.81,-17.4 -5.35,-4.41 -9.46,-10 -4.82,-6.65 -5.5,-14.62 -0.37,-4.37 1.2,-7.99 1.64,-3.81 4.68,-6.86 3.73,-4.98 10.04,-5.04 5.11,-0.04 9.46,2.61 8.72,5.33 17.67,10.24 22.72,12.45 47.44,3.78 0.91,-0.31 1.68,0.2 z"
       id="path794" />
    <path
       fill="#67fafb"
       d="m 354.75,525.04 q 6.18,5.93 5.75,14.96 -0.61,12.67 -8.43,22.13 -14.79,13.65 -34.28,18.94 -2.14,0.58 -1.46,2.69 4.97,15.36 3.98,31.65 1.3,15.44 10.63,29.9 9.66,14.99 22.5,23.25 1.61,1.04 5.74,6.05 a 1.33,1.17 30.6 0 1 0.29,0.89 q -0.26,2.88 -2.67,4.57 a 0.74,0.73 44.5 0 1 -0.85,0 q -7.44,-5.19 -15.03,-10.15 -5.75,-3.76 -8.88,-6.42 -4.5,-3.84 -7.85,-7.69 -0.74,-0.85 -1.42,-1.19 a 1.35,1.05 9 0 1 -0.61,-0.65 q -0.48,-1.33 -1.41,-2.33 -1.67,-1.79 -1.79,-1.97 -6.3,-8.75 -9.52,-18.97 -0.92,-2.93 -1.33,-8.17 -0.43,-5.42 -1.68,-10.73 -0.09,-0.37 -0.2,0 -0.21,0.74 -0.92,0.14 -0.88,-0.05 -1.52,-0.69 l 0.75,-26.71 a 0.58,0.53 -83.2 0 0 -0.41,-0.57 l -3.13,-0.76 -0.01,-7.46 a 2.01,1.01 -45.8 0 1 0.29,-0.92 l 3.81,-6.56 a 1.33,1.01 -77.3 0 1 0.7,-0.59 q 5.47,-1.55 10.98,-2.99 0.21,-0.05 1.47,-0.14 0.85,-0.05 1.41,-0.71 a 1.02,0.94 -67 0 1 0.78,-0.35 q 1.58,0.07 2.78,-1.06 0.38,-0.36 0.83,-0.53 1.48,-0.55 2.62,-1.6 1.48,-1.34 2.36,-1.84 5.48,-3.1 9.94,-7.54 0.32,-0.32 0.83,-0.51 1.51,-0.56 2.28,-1.9 1.21,-2.12 1.28,-2.22 2.16,-2.89 3.58,-6.19 1.6,-3.72 1.88,-5.38 0.47,-2.8 -0.71,-5.85 a 1.7,1.53 -1.9 0 0 -1.16,-0.98 l -2.96,-0.73 a 2.02,1.14 30.6 0 0 -0.97,-0.02 q -4.76,1.41 -9.45,5.17 -7.34,5.9 -17.99,12.07 -0.08,0.04 -1.46,0.93 -1.65,1.07 -4.36,1.94 -17.53,5.67 -34.75,4.5 -3.6,-0.24 -6.62,-1.07 -0.1,-0.03 -3.98,-0.81 -4.48,-0.89 -4.53,-6.07 l 4.67,-6.55 q 1.66,-0.77 3.96,0 25.75,8.62 49.46,-4.27 7.6,-4.13 14.86,-8.85 11.44,-7.44 21.93,0.91 z"
       id="path796" />
    <path
       fill="#f99350"
       d="m 454.71,522 q -0.48,4.08 -1.37,8.07 -0.03,0.12 -1.37,6.91 -2.03,10.28 -9.3,17.68 -2.11,2.15 -5.82,4.61 -3.1,2.05 -6.27,3.99 -5.02,3.09 -8.44,7.7 a 3.24,3.23 -27.5 0 0 -0.64,2.02 q 0.25,9.29 2.81,18.21 0.63,2.18 1.88,0.75 11.06,-12.69 22.28,-25.22 3.68,-4.11 7.16,-8.38 6.57,-8.07 7.21,-20.4 a 3.7,3.63 64.5 0 1 0.64,-1.87 q 0.97,-1.41 0.81,0.68 -0.28,8.15 -3.5,15.3 -2.11,4.69 -8.4,11.96 -6,6.93 -12.08,13.8 -12.03,13.6 -17.77,18.94 -7.06,-15.19 -8.29,-29 -0.34,-3.81 1.97,-9.04 14.22,-11.55 20.97,-19.52 5.16,-6.09 8.81,-17.23 z"
       id="path798" />
    <path
       fill="#685a85"
       d="m 796.29,522.75 q -4.57,10.77 -15.04,15.25 -3.35,1.43 -6.49,-0.8 8.83,-0.19 14.3,-6.14 2.39,-2.6 5.5,-8.06 a 1.11,0.77 -71.3 0 1 0.74,-0.55 q 0.53,-0.03 0.99,0.3 z"
       id="path800" />
    <path
       fill="#0a0216"
       d="m 191.73,523.23 q 1.88,32.42 10.1,63.75 20.89,79.71 73.61,139.33 14.14,16 37.81,36.9 -2.08,1.18 -3.69,-1.02 -2.34,-3.2 -8.12,-8.13 -5.96,-5.07 -17.11,-16.7 -0.06,-0.06 -6.67,-6.71 -4.32,-4.35 -8.15,-9.12 -3.32,-4.14 -6.31,-7.33 -4.82,-5.14 -6.14,-7.51 -2.64,-4.74 -5.74,-9.18 -5.56,-7.98 -5.59,-8.03 -15.72,-24.09 -28.04,-52.92 -7.6,-17.76 -11.91,-30.99 -9.84,-30.21 -12.97,-61.83 -0.7,-7.13 -1.6,-14.24 -0.86,-3.24 0.52,-6.27 z"
       id="path802" />
    <path
       fill="#8ff2fc"
       d="m 755.75,536.79 1,-0.33 q 2.75,6.64 8.65,12.01 a 0.32,0.32 55.9 0 1 -0.1,0.53 q -6.08,2.37 -11.92,3.67 -5.84,1.3 -12.35,1.26 -26.61,-0.17 -47.9,-16.82 -6.72,-5.25 -14.32,-9.37 -1.98,-1.07 -2.66,1.07 -0.31,0.97 -0.38,2.12 -0.06,0.97 0.23,2.11 2.15,8.23 7.56,13.65 22.51,22.49 55.44,21.85 -0.73,0.53 -0.05,1.74 a 1.3,1.3 -32.9 0 1 -0.36,1.67 q -7.95,5.95 -16.34,9.51 v -8.73 q 0,-3.37 -2.77,-4.21 -4.43,-1.33 -9.34,-2.76 -4.48,-1.3 -8.4,-3.46 -5.48,-3.02 -10.92,-6.12 -12.97,-7.4 -16.53,-21.94 -0.55,-2.25 -0.21,-4.44 0.36,-2.38 1.84,-3.49 1.25,-0.93 2.93,-0.85 1.15,0.05 2.76,0.94 1.71,0.94 3.4,1.92 1.52,0.89 3.15,2.28 4.85,4.16 10.3,7.52 0.14,0.09 2.23,0.89 0.97,0.37 1.61,1.26 0.32,0.45 0.7,0.66 12.13,6.83 16.19,8.13 21.02,6.74 42.02,-0.13 1.56,-0.51 0.32,-1.59 -4.53,-3.97 -5.78,-10.55 z"
       id="path804" />
    <path
       fill="#9df5fd"
       d="m 301,583.21 q -3.59,-0.8 -8.56,-4.4 -6.35,-4.59 -11.87,-10.37 -0.51,-0.53 0.22,-0.48 28.36,1.78 50.96,-13.71 10.73,-7.35 13.67,-19.18 0.72,-2.89 0.76,-3.53 0.16,-2.83 -3.37,-2.73 -1.92,0.06 -5.25,2.71 -4.57,3.64 -9.21,7.17 -5.39,4.09 -9.76,6.32 -19.93,10.18 -42.86,8.46 -10.24,-0.76 -19.92,-5.43 -0.47,-0.23 -0.03,-0.5 2.56,-1.62 4.09,-3.74 0.05,5.18 4.53,6.07 3.88,0.78 3.98,0.81 3.02,0.83 6.62,1.07 17.22,1.17 34.75,-4.5 2.71,-0.87 4.36,-1.94 1.38,-0.89 1.46,-0.93 10.65,-6.17 17.99,-12.07 4.69,-3.76 9.45,-5.17 a 2.02,1.14 30.6 0 1 0.97,0.02 l 2.96,0.73 a 1.7,1.53 -1.9 0 1 1.16,0.98 q 1.18,3.05 0.71,5.85 -0.28,1.66 -1.88,5.38 -1.42,3.3 -3.58,6.19 -0.07,0.1 -1.28,2.22 -0.77,1.34 -2.28,1.9 -0.51,0.19 -0.83,0.51 -4.46,4.44 -9.94,7.54 -0.88,0.5 -2.36,1.84 -1.14,1.05 -2.62,1.6 -0.45,0.17 -0.83,0.53 -1.2,1.13 -2.78,1.06 a 1.02,0.94 -67 0 0 -0.78,0.35 q -0.56,0.66 -1.41,0.71 -1.26,0.09 -1.47,0.14 -5.51,1.44 -10.98,2.99 a 1.33,1.01 -77.3 0 0 -0.7,0.59 l -3.81,6.56 a 2.01,1.01 -45.8 0 0 -0.29,0.92 z"
       id="path806" />
    <path
       fill="#685a85"
       d="m 254.79,528.5 q -1.49,3.65 -5.35,7.44 -2.47,2.41 -6.34,2.23 6.25,-3.7 9.95,-9.68 a 1.26,0.8 -70.1 0 1 0.74,-0.57 q 0.68,-0.1 1,0.58 z"
       id="path808" />
    <path
       fill="#d7fefa"
       d="m 416.22,558.71 q -2.31,5.23 -1.97,9.04 1.23,13.81 8.29,29 -19.69,23.01 -38.46,46.79 -5.71,-2.92 -10.58,-3.54 -4.85,-0.62 -7.68,-3.87 a 0.82,0.63 -56 0 1 -0.05,-0.81 q 0.38,-0.81 -0.41,-1.43 -5.17,-4.05 -9.8,-8.7 -0.99,-1 -6.33,-4.48 a 0.52,0.42 -58.7 0 1 -0.09,-0.65 q 0.34,-0.56 -0.59,-0.83 -6.38,-1.86 -7.55,-8.44 17.7,-4.95 28.56,-11.23 10.07,-5.81 17.46,-14.8 3.24,-3.93 4.98,-8.72 4.17,-8.54 4,-16.29 -0.18,-7.85 -3.75,-17.96 0.82,1.3 1.67,0.57 0.5,-0.43 0.79,-0.52 3.05,-0.95 5.59,0.92 a 1.26,0.48 85.8 0 1 0.37,0.8 q 0.1,0.51 0.83,0.44 6.07,2.79 9.69,7.31 0.35,0.45 0.82,0.49 a 1.19,0.64 -4.2 0 1 0.78,0.35 q 2.33,3.18 3.43,6.56 z"
       id="path810" />
    <path
       fill="#b0fcfc"
       d="m 669.08,554.47 q 4.11,5.59 9.46,10 14.33,11.8 31.81,17.4 a 1.14,1.14 13.4 0 1 0.78,1.26 q -0.52,3.45 -1.25,5.95 -1.15,3.92 -1.15,7.94 -0.01,2.41 1.14,7.87 1.23,5.83 1.87,11.24 -14.2,-1.28 -28.24,-3.84 -22.77,-5.82 -41.56,-20.73 -5.24,-4.15 -8.24,-8.6 L 629.71,574 q 1.27,-2 5.23,-2 a 1.88,1.87 18.1 0 0 1.51,-0.76 q 1.79,-2.45 3.61,-2.76 a 0.62,0.49 76.7 0 1 0.58,0.46 q 0.19,0.69 0.92,0.37 8.77,-3.86 20.1,-9.87 0.13,-0.07 3.44,-1.35 2.56,-0.98 3.98,-3.62 z"
       id="path812" />
    <path
       fill="#b0fcfc"
       d="m 352.07,562.13 -0.07,1.31 a 0.74,0.58 9.9 0 0 0.56,0.62 q 3.27,0.87 6.88,2.75 1.71,0.89 3.78,1.15 3.32,0.41 3.4,0.42 7.28,1.44 16.88,4.12 2.92,0.81 4.95,1.89 0.06,0.04 1.34,1.02 0.91,0.71 2.21,0.63 -1.74,4.79 -4.98,8.72 -7.39,8.99 -17.46,14.8 -10.86,6.28 -28.56,11.23 -10.17,3.02 -20.69,4.62 0.99,-16.29 -3.98,-31.65 -0.68,-2.11 1.46,-2.69 19.49,-5.29 34.28,-18.94 z"
       id="path814" />
    <path
       fill="#069bbb"
       d="m 630.47,742.92 q -0.31,-1.06 -0.7,-1.21 a 0.73,0.37 -70.1 0 0 -0.61,0.57 q -0.8,2.34 -2.26,4.34 -0.28,0.38 -0.46,1.01 -0.39,1.39 -1.34,0.29 -0.83,-10.54 -10.16,-16.11 -11.86,-7.07 -23.79,-11.83 -6.61,-2.64 -6.65,-2.66 -28.5,-11.93 -48.94,-25.63 -18.55,-12.44 -36,-29.5 -8.56,-8.38 -14.83,-16.62 -0.98,-1.28 -4.4,-5.26 -2.25,-2.64 -3.99,-5.64 -3.52,-6.09 -3.91,-6.74 -2.04,-3.35 -3.62,-6.96 -1.49,-3.39 -3.72,-6.33 -0.07,-0.1 -1.11,-1.78 -1.07,-1.72 -3.12,-1.56 -2.17,0.17 -2.23,0.17 -3.64,-0.01 -6.84,1.41 -2.43,1.07 -5.31,4.2 -4.06,4.42 -8.02,8.92 -1.35,1 -2.78,0.79 a 1.38,0.89 22.3 0 0 -0.91,0.17 l -4.2,3.16 a 2.05,1.43 -57.3 0 1 -0.87,0.36 q -4.18,0.41 -6.77,3.24 -3.02,3.3 -3.09,3.36 -3.47,3.04 -7.08,5.92 -3.12,2.51 -5.54,5.71 -0.62,0.83 -1.54,0.96 a 1.25,1.03 10.8 0 0 -0.78,0.43 q -1.83,2.49 -5.17,3.29 -0.51,0.12 -0.23,-0.32 1.1,-1.78 2.21,-3.21 0.05,-0.06 2.13,-2.18 1.68,-1.71 2.85,-4.49 1.03,-2.47 3.7,-6.22 0.77,-1.1 2.9,-3.3 1.54,-1.6 2.76,-3.46 1.25,-1.9 3.11,-3.81 2.75,-2.84 4.07,-6.65 20.68,-24.25 41.73,-48.23 0.66,-0.76 1.22,-1.82 0.49,-0.94 1.1,-1.91 0.43,-0.68 0.47,0.12 0.2,4.33 0.69,8.59 0.5,4.34 1.53,8.44 4.2,16.59 13.59,32.5 17.24,29.18 43.71,48.31 29.68,21.43 62.19,38.26 13.04,6.75 25.48,14.55 13.04,8.18 15.53,24.36 z"
       id="path816" />
    <path
       fill="#bbfdfb"
       d="m 720.11,584.82 q -1.87,-0.02 -0.24,-1.7 1.03,-1.07 2.38,-1.66 8.39,-3.56 16.34,-9.51 a 1.3,1.3 -32.9 0 0 0.36,-1.67 q -0.68,-1.21 0.05,-1.74 l 4.49,-0.3 q 0.55,-0.03 0.16,0.36 -6.38,6.33 -7.84,7.46 -4.64,3.61 -10.07,5.91 -2.51,1.06 -5.63,2.85 z"
       id="path818" />
    <path
       fill="#d1fdfa"
       d="m 633.7,582.96 q 3,4.45 8.24,8.6 18.79,14.91 41.56,20.73 0.22,2.88 -1.81,4.15 -2.62,1.63 -3.76,2.65 a 0.34,0.3 36.8 0 0 0.11,0.52 q 0.62,0.34 0.03,0.96 -0.47,0.49 -0.33,1.04 a 0.95,0.64 67.2 0 1 -0.16,0.8 q -2.66,2.6 -12.58,11.34 -5.63,4.96 -11.69,6.33 a 0.78,0.55 -88.8 0 0 -0.45,0.61 q -0.06,0.36 -0.42,0.5 -5.56,2.17 -9.19,5.77 -23.68,-10.08 -43.69,-26.27 -4.2,-3.41 -16.45,-15.21 l 13.09,-9.59 q 6.39,1.65 12.74,-1.2 1.9,-0.86 9.95,-4.1 0.04,-0.02 3.89,-1.45 5.93,-2.21 10.92,-6.18 z"
       id="path820" />
    <path
       fill="#9df5fd"
       d="m 499.29,592.25 -6.06,6.04 a 1.69,1.61 -38 0 0 -0.3,2.01 q 3.56,6.01 7.22,11.96 4.28,6.98 7.98,11.41 4.32,5.18 9.21,9.83 3.24,3.09 6.65,6.67 3.97,4.18 7.01,6.33 5.13,3.63 13.25,10.25 7.05,5.74 16.54,11.35 0.95,0.56 3.13,2.18 1.54,1.15 3.29,1.98 3.49,1.64 6.65,3.79 4.08,2.77 6.47,4.02 9.66,5.04 19.02,10.6 0.14,0.09 12.64,7.14 8.32,4.7 15.81,10.69 a 1.02,0.63 30.8 0 1 0.42,0.81 q -0.09,0.44 -0.72,0.48 -5.67,-4.26 -13.56,-8.73 -22.77,-12.87 -33.39,-18.59 -21.58,-11.61 -40.92,-26.54 -9.9,-7.64 -15.5,-12.62 -11.69,-10.4 -21.44,-23.5 -8.2,-11.01 -13.19,-22.52 0.95,-1.95 1.71,-3.99 0.34,-0.92 1.78,-3.14 1.17,-1.8 1.1,-4.1 a 0.81,0.6 81.9 0 1 0.4,-0.75 q 0.57,-0.2 1.08,0.38 2.52,2.9 3.72,6.56 z"
       id="path822" />
    <path
       fill="#5cf0f6"
       d="m 499.29,592.25 q 4.35,10.64 13.65,22.81 13.85,18.15 28.69,29.83 18.25,14.37 38.22,26.25 20.24,12.03 30.21,17.3 8.1,4.27 14.31,7.94 8.83,5.21 12.26,7.79 5.78,4.32 10.56,10.14 5.57,6.78 5.87,15.14 0.12,3.38 -1.62,5.66 -2.62,3.43 -7.22,4.55 -0.26,-6.64 -3.03,-12.35 -4.96,-10.23 -13.69,-17.52 0.63,-0.04 0.72,-0.48 a 1.02,0.63 30.8 0 0 -0.42,-0.81 q -7.49,-5.99 -15.81,-10.69 -12.5,-7.05 -12.64,-7.14 -9.36,-5.56 -19.02,-10.6 -2.39,-1.25 -6.47,-4.02 -3.16,-2.15 -6.65,-3.79 -1.75,-0.83 -3.29,-1.98 -2.18,-1.62 -3.13,-2.18 -9.49,-5.61 -16.54,-11.35 -8.12,-6.62 -13.25,-10.25 -3.04,-2.15 -7.01,-6.33 -3.41,-3.58 -6.65,-6.67 -4.89,-4.65 -9.21,-9.83 -3.7,-4.43 -7.98,-11.41 -3.66,-5.95 -7.22,-11.96 a 1.69,1.61 -38 0 1 0.3,-2.01 z"
       id="path824" />
    <path
       fill="#bbfdfb"
       d="m 722.58,606.15 q 1.7,9.97 0.17,21.6 -2.06,15.64 -5.33,27.18 -9.06,32 -32.63,55.32 -1.69,-0.75 -0.35,-2.06 7.42,-7.29 12.86,-15.07 4.97,-7.11 9.95,-17.02 8.88,-17.69 12.21,-37.36 0.04,-0.23 1.49,-7.79 1.16,-6.05 0.8,-11.7 -0.46,-7.11 0.83,-13.1 z"
       id="path826" />
    <path
       fill="#b2fefb"
       d="m 341,610.79 q 1.17,6.58 7.55,8.44 0.93,0.27 0.59,0.83 a 0.52,0.42 -58.7 0 0 0.09,0.65 q 5.34,3.48 6.33,4.48 4.63,4.65 9.8,8.7 0.79,0.62 0.41,1.43 a 0.82,0.63 -56 0 0 0.05,0.81 q 2.83,3.25 7.68,3.87 4.87,0.62 10.58,3.54 -14.22,18.96 -26.32,40.05 a 0.38,0.37 38.2 0 1 -0.6,0.07 q -2.32,-2.49 -5.34,-4.31 -15,-9.03 -24.01,-15.66 -6.42,-4.73 -10.87,-11.52 -3.62,-5.53 -7.21,-13.88 -5.51,-12.81 -5.94,-27.04 0.64,0.64 1.52,0.69 0.71,0.6 0.92,-0.14 0.11,-0.37 0.2,0 1.25,5.31 1.68,10.73 0.41,5.24 1.33,8.17 3.22,10.22 9.52,18.97 0.12,0.18 1.79,1.97 0.93,1 1.41,2.33 a 1.35,1.05 9 0 0 0.61,0.65 q 0.68,0.34 1.42,1.19 3.35,3.85 7.85,7.69 3.13,2.66 8.88,6.42 7.59,4.96 15.03,10.15 a 0.74,0.73 44.5 0 0 0.85,0 q 2.41,-1.69 2.67,-4.57 a 1.33,1.17 30.6 0 0 -0.29,-0.89 q -4.13,-5.01 -5.74,-6.05 -12.84,-8.26 -22.5,-23.25 -9.33,-14.46 -10.63,-29.9 10.52,-1.6 20.69,-4.62 z"
       id="path828" />
    <path
       fill="#00ffea"
       d="m 625.1,747.92 q -5,5.13 -6.35,12.58 -0.29,1.6 1.46,1.5 0.41,4.09 2.35,5.94 2.06,1.96 3.94,4.1 -16.1,9.26 -33.65,15.4 -0.37,-12.58 -0.35,-24.69 0,-2.02 -3.35,-6.35 -8.63,-5.41 -13.1,1.53 -1.6,2.48 -2.04,6.48 -0.37,3.43 -0.28,6.91 0.13,5.37 0.08,10.74 -0.05,5.92 0.69,8.65 -4.73,0.68 -9.49,1.14 -4.49,0.43 -9.47,1.13 -18.55,2.61 -37.3,1.13 -28.6,-2.26 -57.49,-11.86 -9.45,-3.14 -16.29,-7.25 l 0.04,-3.71 q 1.49,-0.61 1.36,-2.16 -0.1,-1.21 -0.1,-1.25 0.09,-7 -0.1,-14 -0.01,-0.12 0.29,-6.1 0.19,-3.68 -1.06,-7.22 -0.29,-0.84 -0.99,-1.54 -0.65,-0.66 -1.31,-1.32 -0.06,-0.05 -1.6,-1.95 -1.9,-2.32 -5.43,-1.69 -5.62,1.01 -7.77,5.41 -0.75,1.54 -1.18,6.73 -0.29,3.44 -1.15,6.8 -2.34,-5.8 -5.47,-11.18 -3.5,-6.02 -6.96,-7.78 -5.27,-2.67 -11.63,0.94 -4.77,2.71 -4.4,7.77 0.38,5.12 0.46,10.25 -1.13,0.11 -0.75,1.75 -0.2,-11.64 -4.79,-22.08 -2.04,-4.65 -4.53,-6.44 -3.5,-2.53 -8.33,-1.67 -4.84,0.87 -7.68,5.89 0.92,-9.51 4.68,-23.39 7.93,-29.23 28.31,-49.44 9.24,-9.16 19.1,-17.65 7.77,-6.69 14.99,-13.97 3.96,-4.5 8.02,-8.92 2.88,-3.13 5.31,-4.2 3.2,-1.42 6.84,-1.41 0.06,0 2.23,-0.17 2.05,-0.16 3.12,1.56 1.04,1.68 1.11,1.78 2.23,2.94 3.72,6.33 1.58,3.61 3.62,6.96 0.39,0.65 3.91,6.74 1.74,3 3.99,5.64 3.42,3.98 4.4,5.26 6.27,8.24 14.83,16.62 17.45,17.06 36,29.5 20.44,13.7 48.94,25.63 0.04,0.02 6.65,2.66 11.93,4.76 23.79,11.83 9.33,5.57 10.16,16.11 z"
       id="path830" />
    <path
       fill="#b0fcf9"
       d="m 683.5,612.29 q 14.04,2.56 28.24,3.84 0.79,11.53 -1.62,21.87 a 1.61,1.05 -21.7 0 1 -0.54,0.77 q -0.92,0.73 -1.39,2.42 -0.93,3.3 -3.43,6.73 -1.66,2.29 -2.74,4.67 -1.13,2.49 -2.6,4.81 -0.82,1.31 -1.49,3.62 -0.58,2.01 -1.89,3.73 0.27,-2.1 0.25,-4.22 0,-0.09 0.3,-2.52 0.16,-1.33 -0.57,-2.6 a 0.87,0.77 -15.2 0 0 -0.77,-0.38 q -10.03,0.66 -20.45,-0.77 -16.12,-1.09 -31.55,-7.3 3.63,-3.6 9.19,-5.77 0.36,-0.14 0.42,-0.5 a 0.78,0.55 -88.8 0 1 0.45,-0.61 q 6.06,-1.37 11.69,-6.33 9.92,-8.74 12.58,-11.34 a 0.95,0.64 67.2 0 0 0.16,-0.8 q -0.14,-0.55 0.33,-1.04 0.59,-0.62 -0.03,-0.96 a 0.34,0.3 36.8 0 1 -0.11,-0.52 q 1.14,-1.02 3.76,-2.65 2.03,-1.27 1.81,-4.15 z"
       id="path832" />
    <path
       fill="#08bacd"
       d="m 423.23,619.75 q -1.32,3.81 -4.07,6.65 -1.86,1.91 -3.11,3.81 -1.22,1.86 -2.76,3.46 -2.13,2.2 -2.9,3.3 -2.67,3.75 -3.7,6.22 -1.17,2.78 -2.85,4.49 -2.08,2.12 -2.13,2.18 -1.11,1.43 -2.21,3.21 -0.28,0.44 0.23,0.32 3.34,-0.8 5.17,-3.29 a 1.25,1.03 10.8 0 1 0.78,-0.43 q 0.92,-0.13 1.54,-0.96 2.42,-3.2 5.54,-5.71 3.61,-2.88 7.08,-5.92 0.07,-0.06 3.09,-3.36 2.59,-2.83 6.77,-3.24 a 2.05,1.43 -57.3 0 0 0.87,-0.36 l 4.2,-3.16 a 1.38,0.89 22.3 0 1 0.91,-0.17 q 1.43,0.21 2.78,-0.79 -7.22,7.28 -14.99,13.97 -9.86,8.49 -19.1,17.65 -20.38,20.21 -28.31,49.44 -3.76,13.88 -4.68,23.39 -0.3,4.98 1.29,9.62 0.61,1.8 -1.17,1.72 -4.2,-10.04 -4.5,-14.29 -1.59,-22.8 8.56,-41.69 14.12,-26.27 34.13,-50.12 10.11,-12.06 13.54,-15.94 z"
       id="path834" />
    <path
       fill="#03a7b9"
       d="m 396.71,754.75 q 0.05,5.36 -2.44,10.1 -1.32,2.52 -5.02,2.4 -3.87,-0.13 -5.44,-0.81 -1.51,-0.66 -7.1,-4.69 3.33,-7.19 -1.9,-12.81 -1.49,-1.61 -3.31,-7.15 1.78,0.08 1.17,-1.72 -1.59,-4.64 -1.29,-9.62 2.84,-5.02 7.68,-5.89 4.83,-0.86 8.33,1.67 2.49,1.79 4.53,6.44 4.59,10.44 4.79,22.08 z"
       id="path836" />
    <path
       fill="#01c2c8"
       d="m 425.46,753 1.33,13.25 q -3,6.82 -9.6,6.94 -5.27,0.09 -9.73,-3.15 -4.14,-3 -6.84,-7.12 -2.87,-4.35 -3.16,-9.92 -0.08,-5.13 -0.46,-10.25 -0.37,-5.06 4.4,-7.77 6.36,-3.61 11.63,-0.94 3.46,1.76 6.96,7.78 3.13,5.38 5.47,11.18 z"
       id="path838" />
    <path
       fill="#51e3f4"
       d="m 444.5,771.29 q -0.24,-21.97 -1,-27.79 -0.38,-2.89 -2.46,-5.01 -1.95,-1.99 -4.74,-2.23 -3.82,-0.34 -5.94,2.58 -1.29,1.77 -1.78,5.63 -1.38,10.7 -0.58,21.49 l -1.21,0.29 -1.33,-13.25 q 0.86,-3.36 1.15,-6.8 0.43,-5.19 1.18,-6.73 2.15,-4.4 7.77,-5.41 3.53,-0.63 5.43,1.69 1.54,1.9 1.6,1.95 0.66,0.66 1.31,1.32 0.7,0.7 0.99,1.54 1.25,3.54 1.06,7.22 -0.3,5.98 -0.29,6.1 0.19,7 0.1,14 0,0.04 0.1,1.25 0.13,1.55 -1.36,2.16 z"
       id="path840" />
    <path
       fill="#1b0844"
       d="m 444.5,771.29 -0.04,3.71 q -9.54,-2.2 -16.46,-9.04 -0.8,-10.79 0.58,-21.49 0.49,-3.86 1.78,-5.63 2.12,-2.92 5.94,-2.58 2.79,0.24 4.74,2.23 2.08,2.12 2.46,5.01 0.76,5.82 1,27.79 z"
       id="path842" />
    <path
       fill="#51e3f4"
       d="m 630.47,742.92 q -0.99,3.49 -3.66,6.14 -5.25,5.22 -6.6,12.94 -1.75,0.1 -1.46,-1.5 1.35,-7.45 6.35,-12.58 0.95,1.1 1.34,-0.29 0.18,-0.63 0.46,-1.01 1.46,-2 2.26,-4.34 a 0.73,0.37 -70.1 0 1 0.61,-0.57 q 0.39,0.15 0.7,1.21 z"
       id="path844" />
    <path
       fill="#40317a"
       d="m 262,744.04 q 1.65,0.73 2.5,0.46 2.02,-0.64 2.82,1.04 a 1.47,1.24 86.4 0 0 0.64,0.67 q 2.01,0.98 3.49,2.59 1.77,1.94 3.11,2.83 2.09,1.39 3.96,3.07 2.07,1.86 3.94,3.02 3.16,1.97 6.13,4.22 3.02,2.29 6.21,4.01 5.81,3.13 10.01,6.49 5.76,4.6 9.17,6.86 0.17,0.11 -0.04,0.18 -0.33,0.11 0.14,0.44 2.91,2.12 4.86,3.14 1.7,0.9 2.93,2.06 1.9,1.78 2.67,2.3 1.25,0.84 2.48,1.71 1.03,0.72 2.69,1.21 1.64,0.48 3.07,1.39 2.32,1.47 2.4,1.52 5.65,3.15 12.88,7.69 5.93,3.72 13.17,7.18 0.05,0.03 2.82,1.53 1.64,0.89 4.2,1.85 3.15,1.19 8.23,4.5 0.98,0.64 4.16,2.12 1.8,0.84 4.11,2.38 6.51,4.34 15.22,6.61 5.04,1.31 8.17,2.7 12.94,5.75 25.8,11.66 0.89,0.41 1.28,0.95 0.99,1.38 -0.91,1.81 a 1.28,0.64 -3.6 0 0 -0.81,0.47 q -0.29,0.53 0,1.26 Q 360.4,828.61 303.06,782.69 282.85,766.5 262,744.04 Z"
       id="path846" />
    <path
       fill="#0a0216"
       d="m 715.75,753.46 q 0.61,0.78 -0.19,1.6 -2.29,2.39 -4.52,4.18 -3.88,3.12 -4.75,3.91 -14.82,13.43 -30.6,23.04 -1.23,0.75 -1.44,-0.65 22.28,-14.04 41.5,-32.08 z"
       id="path848" />
    <path
       fill="#3ef3fe"
       d="m 589.15,756.4 q -7.16,-3.35 -11.64,1.41 -1.85,1.97 -2.24,5.02 -0.32,2.44 -0.27,5.67 0.26,16.15 0.71,22.25 l -1.21,-0.04 q -0.74,-2.73 -0.69,-8.65 0.05,-5.37 -0.08,-10.74 -0.09,-3.48 0.28,-6.91 0.44,-4 2.04,-6.48 4.47,-6.94 13.1,-1.53 z"
       id="path850" />
    <path
       fill="#1d043c"
       d="m 589.15,756.4 q 3.35,4.33 3.35,6.35 -0.02,12.11 0.35,24.69 0.1,3.06 -1.43,5.57 -1.41,2.32 -4.29,3.3 -7.53,2.54 -11.42,-5.56 -0.45,-6.1 -0.71,-22.25 -0.05,-3.23 0.27,-5.67 0.39,-3.05 2.24,-5.02 4.48,-4.76 11.64,-1.41 z"
       id="path852" />
    <path
       fill="#0c0029"
       d="m 654.04,756 q -5.49,5.19 -11.54,7.5 -6.21,2.37 -10.5,5.54 -1.16,-0.55 -0.25,-1.54 1.16,-1.25 4.04,-3.3 1.58,-1.12 4.41,-1.96 5.86,-1.74 11.11,-6.68 1.32,-1.23 2.73,0.44 z"
       id="path854" />
    <path
       fill="#04000b"
       d="m 744.79,756 q -36.23,35.31 -78.23,58.06 -66.99,36.3 -145.06,40.4 0.28,-1.76 2.09,-1.63 1.73,0.14 1.83,0.13 19.06,-0.76 37.84,-4.18 103.54,-18.82 177.68,-90.59 2.17,-2.11 3.85,-2.19 z"
       id="path856" />
    <path
       fill="#04000b"
       d="m 617.25,813.96 q 0.86,0.71 -0.5,1.29 -6.92,2.97 -11.93,4.47 -17.7,5.3 -39.32,9.53 -1.51,0.29 -1.75,-0.71 27.35,-5.1 53.5,-14.58 z"
       id="path858" />
    <g
       aria-label="copydog"
       id="text1213"
       style="font-size:139.059px;font-family:'Lobster Two';-inkscape-font-specification:'Lobster Two, Normal';fill:#361e66;stroke-width:3.47648">
      <path
         d="m 337.88178,915.80048 c 1.25153,1.80777 2.92024,2.92024 5.14518,2.92024 3.61554,0 5.4233,-3.61553 5.4233,-8.20448 0,-10.8466 -6.25765,-16.68708 -17.93861,-16.68708 -20.99791,0 -25.72591,23.22285 -25.72591,38.6584 0,24.05721 13.76684,32.40075 26.56027,32.40075 13.62778,0 26.00403,-12.09813 30.45392,-25.72592 h -4.72801 c -4.728,10.29037 -11.40284,15.15743 -21.13697,15.15743 -9.03883,0 -16.40896,-4.17177 -16.40896,-23.64003 0,-13.2106 3.0593,-29.48051 13.07155,-29.48051 4.86706,0 7.64824,3.0593 7.64824,7.37013 0,2.64212 -0.83435,5.97954 -2.364,7.23107 z"
         id="path3034" />
      <path
         d="m 382.38044,893.82916 c -20.85885,0 -27.11651,22.3885 -27.11651,38.6584 0,23.91815 13.62779,32.40075 26.00404,32.40075 15.01837,0 23.77909,-13.76684 23.77909,-36.57252 0,-1.94683 -0.13906,-3.89365 -0.13906,-5.70142 8.4826,-1.39059 17.66049,-5.4233 21.27603,-11.40284 l -2.08589,-3.75459 c -4.58895,4.72801 -11.40284,8.34354 -19.05108,8.34354 h -0.83436 c -1.80776,-12.37625 -7.23107,-21.97132 -21.83226,-21.97132 z m 1.39059,60.49066 c -6.25766,0 -13.48872,-4.31082 -13.48872,-22.3885 0,-13.62778 4.17177,-30.45392 15.71366,-30.45392 4.17177,0 7.78731,2.22495 10.01225,8.62166 -3.61553,0.13906 -5.56236,1.66871 -5.56236,5.97954 0,4.728 2.22495,6.67483 7.50919,6.95295 0.13906,1.11247 0.13906,2.22494 0.13906,3.33741 0,17.6605 -4.58895,27.95086 -14.32308,27.95086 z"
         id="path3036" />
      <path
         d="m 415.19818,889.37927 v 109.43944 l 14.04496,-3.47648 v -37.12875 c 3.33742,4.17177 7.50919,6.67483 13.62778,6.67483 14.32308,0 23.91815,-13.62778 23.91815,-36.57252 0,-23.64003 -10.1513,-34.48663 -23.08379,-34.48663 -6.25766,0 -10.98566,2.64212 -14.46214,6.25765 v -10.70754 z m 23.64003,13.48872 c 6.1186,0 14.04496,5.56236 14.04496,24.89156 0,15.71367 -5.28424,28.22898 -14.46213,28.22898 -3.19836,0 -6.53578,-1.39059 -9.1779,-4.728 v -41.71771 c 2.22495,-4.17177 5.56236,-6.67483 9.59507,-6.67483 z"
         id="path3038" />
      <path
         d="m 507.11597,894.52445 v 45.33324 c 0,9.17789 -5.70142,14.46213 -10.8466,14.46213 -4.86707,0 -8.34354,-3.47647 -8.34354,-12.51531 v -47.28006 h -13.9059 v 48.80971 c 0,15.85273 8.76072,21.55415 19.60732,21.55415 4.86706,0 9.87319,-2.50306 13.48872,-7.92636 v 8.76071 c -9.03883,3.7546 -18.21673,9.87319 -18.21673,19.46826 0,7.50919 5.56236,13.62779 14.74026,13.62779 9.31695,0 17.38237,-6.39672 17.38237,-23.77909 v -8.89978 c 12.37625,-3.75459 18.49485,-7.23107 21.41509,-26.97745 h -5.14518 c -1.94683,15.57461 -6.81389,18.91203 -16.26991,21.97133 v -66.60927 z m -6.11859,97.06319 c -4.17177,0 -6.67484,-2.78118 -6.67484,-6.95295 0,-5.14519 3.61554,-9.1779 12.79343,-13.34967 v 9.73413 c 0,6.53578 -1.11247,10.56849 -6.11859,10.56849 z"
         id="path3040" />
      <path
         d="m 574.55939,868.65948 v 32.5398 c -2.64213,-5.70141 -8.4826,-7.37012 -12.93249,-7.37012 -18.91203,0 -26.42121,22.11038 -26.42121,39.21464 0,23.36191 12.51531,31.84451 23.77909,31.84451 8.76071,0 15.29649,-5.97954 18.07767,-13.21061 1.39059,6.95295 5.00612,13.21061 13.48872,13.21061 6.1186,0 15.15743,-2.50306 19.3292,-25.72592 h -5.14518 c -2.08589,10.01225 -5.56236,15.15743 -10.01225,15.15743 -5.97954,0 -6.25765,-8.89977 -6.25765,-12.51531 v -75.09186 z m -12.09814,85.66034 c -8.06542,0 -12.65437,-6.39671 -12.65437,-22.24944 0,-12.93248 4.58895,-30.59298 16.54802,-30.59298 4.17177,0 6.95295,3.0593 8.20449,5.97954 v 31.70545 c 0,8.4826 -6.39672,15.15743 -12.09814,15.15743 z"
         id="path3042" />
      <path
         d="m 630.04376,893.82916 c -20.85885,0 -27.1165,22.3885 -27.1165,38.6584 0,23.91815 13.62778,32.40075 26.00403,32.40075 15.01837,0 23.77909,-13.76684 23.77909,-36.57252 0,-1.94683 -0.13906,-3.89365 -0.13906,-5.70142 8.4826,-1.39059 17.66049,-5.4233 21.27603,-11.40284 l -2.08589,-3.75459 c -4.58894,4.72801 -11.40284,8.34354 -19.05108,8.34354 h -0.83435 c -1.80777,-12.37625 -7.23107,-21.97132 -21.83227,-21.97132 z m 1.39059,60.49066 c -6.25765,0 -13.48872,-4.31082 -13.48872,-22.3885 0,-13.62778 4.17177,-30.45392 15.71367,-30.45392 4.17177,0 7.7873,2.22495 10.01224,8.62166 -3.61553,0.13906 -5.56236,1.66871 -5.56236,5.97954 0,4.728 2.22495,6.67483 7.50919,6.95295 0.13906,1.11247 0.13906,2.22494 0.13906,3.33741 0,17.6605 -4.58895,27.95086 -14.32308,27.95086 z"
         id="path3044" />
      <path
         d="m 700.26837,894.52445 v 6.67483 c -2.64212,-5.70141 -8.4826,-7.37012 -12.93249,-7.37012 -18.91202,0 -26.42121,21.27603 -26.42121,37.82405 0,22.3885 12.51531,30.45392 23.77909,30.45392 6.67483,0 12.09813,-3.47648 15.57461,-8.34354 v 11.95907 c -9.03884,3.7546 -18.21673,9.87319 -18.21673,19.46826 0,7.50919 5.56236,13.62779 14.74025,13.62779 9.31696,0 17.38238,-6.39672 17.38238,-23.77909 v -80.51517 z m -12.09813,57.01419 c -8.06543,0 -12.65437,-5.97953 -12.65437,-20.85885 0,-12.37625 4.58894,-29.20239 16.54802,-29.20239 4.17177,0 6.95295,3.0593 8.20448,5.97954 v 29.61957 c 0,8.20448 -6.53577,14.46213 -12.09813,14.46213 z m 5.97953,40.049 c -4.17177,0 -6.67483,-2.78118 -6.67483,-6.95295 0,-5.14519 3.61554,-9.1779 12.79343,-13.34967 v 9.73413 c 0,6.53578 -1.11247,10.56849 -6.1186,10.56849 z"
         id="path3046" />
    </g>
  </g>
</svg>
