<?xml version="1.0" encoding="UTF-8" standalone="no"?>
<!-- Created with Inkscape (http://www.inkscape.org/) -->

<svg
   width="183.51283mm"
   height="183.51283mm"
   viewBox="0 0 183.51283 183.51283"
   version="1.1"
   id="svg5"
   xml:space="preserve"
   inkscape:version="1.2.2 (732a01da63, 2022-12-09, custom)"
   sodipodi:docname="copydog.svg"
   xmlns:inkscape="http://www.inkscape.org/namespaces/inkscape"
   xmlns:sodipodi="http://sodipodi.sourceforge.net/DTD/sodipodi-0.dtd"
   xmlns="http://www.w3.org/2000/svg"
   xmlns:svg="http://www.w3.org/2000/svg"><sodipodi:namedview
     id="namedview7"
     pagecolor="#ffffff"
     bordercolor="#666666"
     borderopacity="1.0"
     inkscape:showpageshadow="2"
     inkscape:pageopacity="0.0"
     inkscape:pagecheckerboard="0"
     inkscape:deskcolor="#d1d1d1"
     inkscape:document-units="mm"
     showgrid="false"
     inkscape:zoom="0.5946522"
     inkscape:cx="512.90485"
     inkscape:cy="343.8985"
     inkscape:window-width="1904"
     inkscape:window-height="1040"
     inkscape:window-x="8"
     inkscape:window-y="32"
     inkscape:window-maximized="0"
     inkscape:current-layer="layer1" /><defs
     id="defs2"><filter
       style="color-interpolation-filters:sRGB"
       inkscape:label="Emergence"
       id="filter1458"
       x="-0.090752855"
       y="-0.090752833"
       width="1.2382036"
       height="1.2382036"
       inkscape:menu="Shadows and Glows"
       inkscape:menu-tooltip="Cut out, add inner shadow and colorize some parts of an image"><feFlood
         flood-opacity="0.498039"
         flood-color="rgb(0,0,0)"
         result="flood"
         id="feFlood1448" /><feComposite
         in="flood"
         in2="SourceGraphic"
         operator="in"
         result="composite1"
         id="feComposite1450" /><feGaussianBlur
         in="composite1"
         stdDeviation="3"
         result="blur"
         id="feGaussianBlur1452" /><feOffset
         dx="6"
         dy="6"
         result="offset"
         id="feOffset1454" /><feComposite
         in="SourceGraphic"
         in2="offset"
         operator="over"
         result="fbSourceGraphic"
         id="feComposite1456" /><feColorMatrix
         result="fbSourceGraphicAlpha"
         in="fbSourceGraphic"
         values="0 0 0 -1 0 0 0 0 -1 0 0 0 0 -1 0 0 0 0 1 0"
         id="feColorMatrix1902" /><feColorMatrix
         id="feColorMatrix1904"
         values="0 0 0 0 0 0 0 0 0 0 0 0 0 0 0 0.21 0.72 0.07 0 0 "
         result="result1"
         in="fbSourceGraphic" /><feColorMatrix
         id="feColorMatrix1906"
         values="1 0 0 0 0 0 1 0 0 0 0 0 1 0 0 0 0 0 2 0 "
         result="result9" /><feComposite
         in2="result9"
         id="feComposite1908"
         in="fbSourceGraphic"
         operator="in"
         result="result4" /><feFlood
         id="feFlood1910"
         result="result2"
         flood-color="rgb(0,0,0)" /><feComposite
         in2="result9"
         id="feComposite1912"
         operator="in"
         result="result10" /><feComposite
         in2="result4"
         id="feComposite1914"
         operator="atop" /><feGaussianBlur
         id="feGaussianBlur1916"
         stdDeviation="3"
         result="result8" /><feOffset
         id="feOffset1918"
         dx="3"
         dy="3"
         result="result3"
         in="result8" /><feFlood
         id="feFlood1920"
         flood-opacity="1"
         flood-color="rgb(219,173,62)"
         result="result5" /><feMerge
         id="feMerge1922"
         result="result6"><feMergeNode
           id="feMergeNode1924"
           in="result5" /><feMergeNode
           id="feMergeNode1926"
           in="result3" /><feMergeNode
           id="feMergeNode1928"
           in="result4" /></feMerge><feComposite
         in2="fbSourceGraphic"
         id="feComposite1930"
         operator="in"
         result="result7" /></filter><filter
       style="color-interpolation-filters:sRGB"
       inkscape:label="Blur"
       id="filter5454"
       x="-0.059365641"
       y="-0.063153803"
       width="1.1188012"
       height="1.1263833"><feGaussianBlur
         stdDeviation="2 2"
         result="blur"
         id="feGaussianBlur5452" /></filter><filter
       inkscape:label="Button"
       inkscape:menu="Bevels"
       inkscape:menu-tooltip="Soft bevel, slightly depressed middle"
       style="color-interpolation-filters:sRGB"
       id="filter6686"
       x="-0.18998268"
       y="-0.20794676"
       width="1.3799907"
       height="1.4178792"><feGaussianBlur
         stdDeviation="2.3"
         in="SourceAlpha"
         result="result0"
         id="feGaussianBlur6660" /><feMorphology
         in="SourceAlpha"
         radius="6.6"
         result="result1"
         id="feMorphology6662" /><feGaussianBlur
         stdDeviation="8.9"
         in="result1"
         id="feGaussianBlur6664" /><feColorMatrix
         values="1 0 0 0 0 0 1 0 0 0 0 0 1 0 0 0 0 0 0.3 0"
         result="result91"
         id="feColorMatrix6666" /><feComposite
         in="result0"
         operator="out"
         result="result2"
         in2="result91"
         id="feComposite6668" /><feGaussianBlur
         stdDeviation="1.7"
         result="result4"
         id="feGaussianBlur6670" /><feDiffuseLighting
         surfaceScale="10"
         id="feDiffuseLighting6674"><feDistantLight
           azimuth="225"
           elevation="45"
           id="feDistantLight6672" /></feDiffuseLighting><feBlend
         in2="SourceGraphic"
         mode="multiply"
         id="feBlend6676" /><feComposite
         in2="SourceAlpha"
         operator="in"
         result="result3"
         id="feComposite6678" /><feSpecularLighting
         in="result4"
         surfaceScale="5"
         specularExponent="17.89999962"
         id="feSpecularLighting6682"><feDistantLight
           azimuth="225"
           elevation="45"
           id="feDistantLight6680" /></feSpecularLighting><feComposite
         in2="result3"
         operator="atop"
         id="feComposite6684" /></filter></defs><g
     inkscape:label="Layer 1"
     inkscape:groupmode="layer"
     id="layer1"
     transform="translate(-13.243582,-88.394524)"><rect
       style="fill:none;fill-opacity:1;stroke:none;stroke-width:3.312;stroke-dasharray:none;stroke-dashoffset:0;stroke-opacity:1"
       id="rect10545"
       width="183.51283"
       height="183.51283"
       x="13.243582"
       y="88.394524" /><circle
       style="fill:#ffffff;fill-opacity:1;stroke:#083a42;stroke-width:3.312;stroke-dasharray:none;stroke-dashoffset:0;stroke-opacity:1"
       id="path462"
       cx="105"
       cy="180.15094"
       r="79.368057" /><g
       id="g1021"
       style="fill:#083a42;fill-opacity:1;stroke:#083a42;stroke-opacity:1"><path
         style="fill:#083a42;fill-opacity:1;stroke:#083a42;stroke-width:0.264583;stroke-opacity:1"
         d="m 75.770245,206.11124 c -0.273897,-2.6205 -0.170638,-7.35434 0.204102,-9.35697 0.190614,-1.01865 0.804336,-3.28084 1.36383,-5.02709 0.976161,-3.04673 1.017714,-3.32464 1.028573,-6.87916 0.0108,-3.53195 -0.02397,-3.78058 -0.747861,-5.34765 -0.986412,-2.13541 -3.242919,-4.3081 -5.638647,-5.4292 -2.237938,-1.04725 -4.145314,-1.10224 -7.819686,-0.22542 -2.026828,0.48367 -3.100105,0.59175 -5.035564,0.5071 -2.250281,-0.0984 -2.651434,-0.20255 -4.711255,-1.22293 -2.981183,-1.47681 -5.534502,-3.83637 -8.588101,-7.93638 -5.00127,-6.71511 -6.449457,-11.19107 -4.345469,-13.43065 0.77162,-0.82136 2.527639,-1.62794 4.84904,-2.22727 4.755497,-1.22778 9.982142,-3.60398 12.084114,-5.49384 1.307584,-1.17563 1.915539,-2.24287 3.702479,-6.49955 1.782662,-4.24649 5.055172,-8.16461 8.324766,-9.9671 2.692601,-1.48441 7.042687,-2.83573 10.652524,-3.30914 3.951693,-0.51825 10.549658,-0.51762 14.508809,0.001 2.954931,0.38736 4.790511,0.89008 3.319271,0.90906 -0.34297,0.004 -2.105722,1.02632 -3.917235,2.27089 l -3.293663,2.26285 -2.68197,-0.44846 c -5.34557,-0.89384 -11.598564,-0.0739 -15.566967,2.04122 -0.820256,0.43719 -2.208456,1.49223 -3.084889,2.34454 -1.602348,1.55823 -1.940044,2.14083 -4.931037,8.50707 -1.210426,2.57635 -2.906643,4.65493 -5.042231,6.17886 -1.8636,1.32983 -4.474731,2.596 -6.302883,3.05633 l -1.190649,0.29981 0.395251,0.7923 c 1.063717,2.13227 -1.007436,6.15908 -4.351129,8.4596 l -1.125992,0.7747 1.913686,2.26441 c 2.256602,2.67017 4.839639,4.71079 6.658062,5.25991 1.841834,0.55619 4.694172,0.49656 6.898133,-0.1442 6.508115,-1.89213 10.046052,-1.71816 15.287784,0.7517 2.886808,1.36024 4.264306,2.26461 7.415549,4.86854 4.317045,3.56726 7.554153,7.49236 9.672751,11.72853 2.120539,4.24004 2.549219,6.09662 2.533099,10.97069 -0.013,3.92902 -0.0529,4.22867 -0.951406,7.14375 l -0.937845,3.04271 -10.18852,0.0692 -10.18852,0.0692 -0.170304,-1.62939 z m 54.333865,0.49182 c 0,-1.75929 -0.48326,-5.30236 -1.21015,-8.87229 -1.34265,-6.59409 -4.419,-12.79034 -8.16399,-16.44357 -0.66505,-0.64876 -1.20919,-1.33928 -1.20919,-1.53449 0,-0.63944 0.82622,-1.97247 2.67589,-4.31733 3.74863,-4.75218 8.1699,-7.69321 13.47823,-8.96573 3.42703,-0.82153 5.13466,-0.72079 9.41266,0.55526 2.99816,0.89429 4.08122,1.0976 5.91864,1.111 3.2741,0.0239 4.95478,-0.81177 7.89773,-3.92685 2.83343,-2.99914 3.01234,-3.37159 1.99868,-4.16046 -2.76079,-2.14857 -4.39844,-5.8108 -3.60992,-8.07277 l 0.26922,-0.77229 -2.15337,-0.70198 c -5.38651,-1.75596 -8.4355,-4.62794 -10.9237,-10.2895 -1.63432,-3.7187 -2.92538,-5.42114 -5.36519,-7.07476 -2.83832,-1.92371 -6.83237,-3.35133 -11.52908,-4.12093 -3.69786,-0.60592 -3.36217,-0.78632 -4.31656,2.31967 -1.08378,3.52711 -1.56901,7.25285 -2.03779,15.64705 -0.37042,6.63286 -0.5036,7.83198 -1.34036,12.06805 -0.91874,4.65107 -2.8302,8.98186 -4.99749,11.3228 -5.40203,5.83483 -14.49805,3.34968 -20.597732,-5.62759 -1.151392,-1.69457 -3.169129,-6.06004 -4.400521,-9.52073 -0.416374,-1.17018 -1.211916,-3.13963 -1.767871,-4.37656 -0.972977,-2.16475 -1.010918,-2.35794 -1.013249,-5.15938 -0.0021,-2.65339 0.06603,-3.06229 0.772758,-4.6302 1.074484,-2.38383 2.432,-4.23864 5.095545,-6.9622 4.54855,-4.65103 10.99291,-8.0929 18.99285,-10.14392 2.67975,-0.68703 3.29837,-0.74608 7.80521,-0.74512 5.30819,10e-4 7.31498,0.27994 12.39808,1.72245 3.1416,0.89154 7.12058,2.57143 8.96149,3.78347 0.69427,0.45709 2.16604,1.72515 3.27061,2.81789 1.8492,1.82941 2.17182,2.32217 4.07248,6.22013 1.79119,3.67345 2.28091,4.44609 3.70276,5.84199 1.44391,1.41756 2.01308,1.75943 4.79105,2.87774 1.73387,0.69799 4.48722,1.72543 6.11856,2.28321 4.87029,1.66523 5.89719,2.42067 6.31822,4.64804 0.26247,1.3885 -0.94925,4.79585 -2.54285,7.15051 -4.30337,6.35853 -6.86357,9.1085 -10.02814,10.77143 -3.61325,1.89871 -6.31238,2.16373 -10.83129,1.0635 -3.59953,-0.87639 -5.6758,-0.7931 -7.70056,0.30891 -2.66671,1.4514 -4.46009,4.51124 -4.70059,8.02004 -0.17769,2.59242 0.1951,4.74143 1.5068,8.68613 1.84539,5.54969 2.16083,7.05863 2.31641,11.08078 0.0794,2.05161 0.0595,4.52216 -0.0442,5.49011 l -0.18847,1.75991 h -3.55081 -3.55082 z m -19.74682,-39.26991 c 0.57851,-0.40776 1.10646,-0.90678 1.17323,-1.10894 0.0712,-0.21551 0.003,-0.29411 -0.16585,-0.19002 -0.48594,0.30033 -2.23567,-0.60045 -3.43825,-1.77005 -0.72124,-0.70146 -1.5821,-2.0166 -2.33193,-3.56249 -1.09809,-2.26389 -1.38001,-2.61552 -3.70142,-4.61667 -3.67418,-3.16729 -4.927252,-5.05104 -5.903548,-8.87482 -0.300207,-1.17579 -0.545831,-2.68978 -0.545831,-3.36441 0,-1.84869 0.758807,-4.81561 1.755741,-6.8649 0.489548,-1.00632 0.889498,-1.89929 0.888778,-1.98438 -0.005,-0.59578 -4.890048,6.24838 -5.697276,7.98223 -0.852855,1.83186 -0.823211,2.35062 0.292441,5.11799 0.519118,1.28767 1.483773,3.94912 2.143678,5.91433 2.177744,6.48536 4.285387,9.87247 7.798077,12.53195 2.48709,1.88299 5.7139,2.21276 7.73216,0.79018 z m -37.758,-21.78994 c -0.958119,-0.75366 -1.374618,-2.38346 -0.862287,-3.3742 0.544454,-1.05285 1.040212,-1.40074 2.222,-1.55926 1.196583,-0.16049 2.52113,0.41624 2.996679,1.30481 0.373663,0.6982 0.357341,2.12006 -0.0327,2.84886 -0.689457,1.28826 -3.119988,1.72661 -4.323687,0.77979 z m 63.11025,-0.91108 c -1.94427,-1.63599 -1.04847,-4.15894 1.68372,-4.7421 1.26933,-0.27093 2.60788,0.75309 2.71729,2.07878 0.12677,1.53616 -0.14037,2.22679 -1.08385,2.80205 -1.17324,0.71535 -2.36118,0.66567 -3.31716,-0.13873 z"
         id="path302" /><text
         xml:space="preserve"
         style="font-style:normal;font-variant:normal;font-weight:normal;font-stretch:normal;font-size:29.293px;line-height:1.25;font-family:'Lobster Two';-inkscape-font-specification:'Lobster Two, Normal';font-variant-ligatures:normal;font-variant-caps:normal;font-variant-numeric:normal;font-variant-east-asian:normal;fill:#083a42;fill-opacity:1;stroke:#083a42;stroke-width:0.732325;stroke-opacity:1"
         x="55.773197"
         y="233.66652"
         id="text358"><tspan
           sodipodi:role="line"
           id="tspan356"
           style="font-style:normal;font-variant:normal;font-weight:normal;font-stretch:normal;font-size:29.293px;font-family:'Lobster Two';-inkscape-font-specification:'Lobster Two, Normal';font-variant-ligatures:normal;font-variant-caps:normal;font-variant-numeric:normal;font-variant-east-asian:normal;fill:#083a42;fill-opacity:1;stroke:#083a42;stroke-width:0.732325;stroke-opacity:1"
           x="55.773197"
           y="233.66652">CopyDog</tspan></text></g></g></svg>
